<?xml version="1.0" encoding="UTF-8" standalone="no"?>
<!-- Created with Inkscape (http://www.inkscape.org/) -->

<svg
   width="210mm"
   height="297mm"
   viewBox="0 0 210 297"
   version="1.1"
   id="svg1"
   inkscape:version="1.4 (86a8ad7, 2024-10-11)"
   sodipodi:docname="cactus.svg"
   xmlns:inkscape="http://www.inkscape.org/namespaces/inkscape"
   xmlns:sodipodi="http://sodipodi.sourceforge.net/DTD/sodipodi-0.dtd"
   xmlns="http://www.w3.org/2000/svg"
   xmlns:svg="http://www.w3.org/2000/svg">
  <sodipodi:namedview
     id="namedview1"
     pagecolor="#ffffff"
     bordercolor="#000000"
     borderopacity="0.25"
     inkscape:showpageshadow="2"
     inkscape:pageopacity="0.0"
     inkscape:pagecheckerboard="0"
     inkscape:deskcolor="#d1d1d1"
     inkscape:document-units="mm"
     inkscape:zoom="1"
     inkscape:cx="154"
     inkscape:cy="415.5"
     inkscape:window-width="3200"
     inkscape:window-height="1711"
     inkscape:window-x="2391"
     inkscape:window-y="-9"
     inkscape:window-maximized="1"
     inkscape:current-layer="layer1" />
  <defs
     id="defs1" />
  <g
     inkscape:label="Ebene 1"
     inkscape:groupmode="layer"
     id="layer1">
    <path
       style="fill:#e6beae;fill-opacity:1;stroke-width:4.67783;stroke-linecap:square"
       d="m 197.44854,53.641622 c 0.91828,0.548497 -1.5634,4.958467 -2.79288,6.630435 -2.00962,2.732895 -3.95308,4.237256 -3.95308,4.237256 l -9.14431,-5.792151 c 0,0 -4.92614,-15.614395 -2.57379,-13.788018 1.56994,1.218914 3.38819,1.56636 4.9014,4.021094 1.68036,2.725879 2.21361,5.784682 2.16291,3.007496 -0.0735,-4.023763 3.09078,-12.220428 3.92381,-9.02259 1.1016,4.228859 1.19232,5.865888 -0.0244,10.715394 -0.7211,2.874342 1.55,0.191881 4.09634,-0.860346 1.62965,-0.673418 2.69934,0.430585 3.40392,0.851422 z"
       id="path7"
       sodipodi:nodetypes="ssccssssssss" />
    <path
       style="fill:#e6beae;fill-opacity:1;stroke-width:4.41948;stroke-linecap:square"
       d="m 19.056221,35.857029 c -0.961376,0.453835 1.571413,4.281802 2.831901,5.738349 2.060319,2.380782 4.06543,3.706514 4.06543,3.706514 l 9.577229,-4.802608 c 0,0 5.298007,-13.304799 2.83056,-11.780805 -1.646758,1.017103 -3.542162,1.282146 -5.143621,3.360385 -1.778349,2.307793 -2.367042,4.92199 -2.28348,2.540601 0.121069,-3.45029 -3.079786,-10.538914 -3.981877,-7.810893 -1.192937,3.607568 -1.305482,5.010188 -0.0936,9.19223 0.718287,2.47873 -1.614616,0.136465 -4.251935,-0.812359 -1.687886,-0.607247 -2.812955,0.320368 -3.550601,0.668577 z"
       id="path6"
       sodipodi:nodetypes="ssccssssssss" />
    <path
       style="fill:#669f85;fill-opacity:1;stroke-width:6.6191;stroke-linecap:square"
       d="M 139.48678,185.9326 C 141.17594,62.764794 136.96867,13.656069 106.04601,16.41166 83.463314,18.424058 72.154267,105.37139 69.935643,173.90308 68.10534,230.43982 138.63178,248.27669 139.48678,185.9326 Z"
       id="path4"
       sodipodi:nodetypes="ssss" />
    <path
       style="fill:#8e7660;fill-opacity:1;stroke-width:3.6274;stroke-linecap:square"
       d="m 43.965329,199.25782 12.606828,82.52879 93.691583,-0.62999 14.03942,-83.15878 z"
       id="path2" />
    <path
       style="fill:#615142;fill-opacity:1;stroke-width:3.75251;stroke-linecap:square"
       d="M 39.154265,280.84162 166.4039,279.89664 161.80452,296.2764 43.447017,295.3314 Z"
       id="path1" />
    <rect
       style="fill:#615142;fill-opacity:1;stroke-width:3.91016;stroke-linecap:square"
       id="rect1"
       width="169.12849"
       height="19.214716"
       x="17.344994"
       y="188.48839" />
    <path
       style="fill:#669f85;stroke-width:4.21399;stroke-linecap:square;fill-opacity:1"
       d="m 132.62044,103.65335 c 0,0 18.39868,3.7747 27.65079,-7.184818 12.2343,-14.492056 8.0591,-39.343891 20.16237,-37.138331 24.52442,4.469044 22.72518,15.870519 -4.53701,57.585189 -7.26724,11.11981 -40.13513,7.67803 -40.13513,7.67803 z"
       id="path3"
       sodipodi:nodetypes="cssscc" />
    <path
       style="fill:#669f85;fill-opacity:1;stroke-width:3.7643;stroke-linecap:square"
       d="m 80.044334,79.85458 c 0,0 -16.818993,3.294956 -25.276728,-6.271666 C 43.583727,60.932721 47.40045,39.239421 36.336351,41.164667 c -22.418785,3.901052 -20.774025,13.85346 4.147468,50.266419 6.643284,9.706544 36.689179,6.702193 36.689179,6.702193 z"
       id="path5"
       sodipodi:nodetypes="cssscc" />
  </g>
</svg>
