<?xml version="1.0" encoding="UTF-8" standalone="no"?>
<!-- Created with Inkscape (http://www.inkscape.org/) -->

<svg
   width="210mm"
   height="297mm"
   viewBox="0 0 210 297"
   version="1.1"
   id="svg1"
   inkscape:version="1.4 (86a8ad7, 2024-10-11)"
   sodipodi:docname="edu-frame.svg"
   xmlns:inkscape="http://www.inkscape.org/namespaces/inkscape"
   xmlns:sodipodi="http://sodipodi.sourceforge.net/DTD/sodipodi-0.dtd"
   xmlns="http://www.w3.org/2000/svg"
   xmlns:svg="http://www.w3.org/2000/svg">
  <sodipodi:namedview
     id="namedview1"
     pagecolor="#e6beae"
     bordercolor="#000000"
     borderopacity="0.25"
     inkscape:showpageshadow="2"
     inkscape:pageopacity="0.0"
     inkscape:pagecheckerboard="0"
     inkscape:deskcolor="#d1d1d1"
     inkscape:document-units="mm"
     inkscape:zoom="0.75811588"
     inkscape:cx="397.03693"
     inkscape:cy="561.25984"
     inkscape:window-width="3200"
     inkscape:window-height="1711"
     inkscape:window-x="2391"
     inkscape:window-y="-9"
     inkscape:window-maximized="1"
     inkscape:current-layer="layer1" />
  <defs
     id="defs1" />
  <g
     inkscape:label="Ebene 1"
     inkscape:groupmode="layer"
     id="layer1">
    <path
       id="path2"
       style="fill:#f6f5f5;stroke:#261e1b;stroke-width:7.81133;stroke-linecap:square"
       d="M 196.9307,147.68607 A 90.28015,116.10624 0 0 1 106.65056,263.79231 90.28015,116.10624 0 0 1 16.370408,147.68607 90.28015,116.10624 0 0 1 106.65056,31.579839 90.28015,116.10624 0 0 1 196.9307,147.68607 Z" />
    <path
       style="display:inline;fill:#000000;stroke-width:0.852746"
       d="m 100.45617,203.20671 c -13.022426,-1.22653 -25.093614,-6.06751 -32.110131,-12.87734 -1.736828,-1.68564 -2.995162,-3.45434 -3.577263,-5.02806 -0.39501,-1.06793 -0.403644,-1.48066 -0.403644,-19.23464 0,-14.40658 0.05073,-18.11858 0.246587,-18.02327 0.135724,0.0661 8.278245,3.61694 18.094805,7.89097 11.656693,5.07518 18.455916,7.90847 19.599836,8.16731 0.96333,0.21793 2.70446,0.39634 3.86923,0.39634 1.16474,0 2.9059,-0.17844 3.86924,-0.39634 1.14391,-0.25877 7.94313,-3.09213 19.59979,-8.16731 9.8166,-4.27403 17.95925,-7.82497 18.09484,-7.89097 0.19586,-0.0954 0.24659,3.61669 0.24659,18.02327 0,20.89931 0.16864,19.09038 -2.05464,22.05463 -5.14145,6.85533 -17.81022,12.84179 -31.10762,14.69944 -3.51848,0.49153 -11.08773,0.69487 -14.36748,0.38597 z m 62.42271,-11.26365 c -3.82116,-3.35495 -5.87536,-7.88415 -5.5375,-12.20945 0.18813,-2.40915 1.3311,-6.68645 2.84593,-10.6508 l 1.30809,-3.42325 0.0984,-11.85069 0.0988,-11.85069 2.55805,-1.11966 c 1.40696,-0.61579 2.62727,-1.11966 2.71179,-1.11966 0.0847,0 0.15353,5.79184 0.15353,12.87071 v 12.87071 l 1.369,3.71326 c 0.75293,2.04229 1.65905,4.81669 2.01361,6.16534 0.57216,2.17644 0.64553,2.77183 0.65249,5.29592 0.007,2.69347 -0.0269,2.93342 -0.62944,4.53902 -0.7619,2.02658 -2.60334,4.7329 -4.26794,6.27249 -2.00613,1.85543 -1.8532,1.83292 -3.37502,0.49675 z m -58.37971,-34.8389 c -2.76571,-0.37783 -6.011898,-1.70488 -34.118887,-13.94815 -16.487485,-7.18188 -30.376633,-13.32164 -30.864734,-13.64392 -2.758452,-1.82124 -2.719952,-4.39327 0.09272,-6.18932 0.54565,-0.34845 14.611977,-5.97687 31.258502,-12.50757 30.586429,-11.999609 32.409799,-12.653009 35.308879,-12.653009 2.90855,0 4.71795,0.64835 35.31715,12.655039 16.64198,6.53007 30.70458,12.15774 31.25023,12.50598 2.81251,1.79481 2.85101,4.36767 0.0927,6.18888 -1.46266,0.96572 -60.70829,26.66791 -62.41978,27.07922 -1.75652,0.42213 -4.70797,0.67798 -5.91659,0.51285 z"
       id="path1"
       sodipodi:nodetypes="sssscssssssssssssscccssscsssssssssssssssss" />
  </g>
</svg>
