<?xml version="1.0" encoding="UTF-8" standalone="no"?>
<!-- Created with Inkscape (http://www.inkscape.org/) -->

<svg
   width="117.86368mm"
   height="114.47239mm"
   viewBox="0 0 117.86368 114.47239"
   version="1.1"
   id="svg1"
   xml:space="preserve"
   inkscape:version="1.4 (86a8ad7, 2024-10-11)"
   sodipodi:docname="email.svg"
   xmlns:inkscape="http://www.inkscape.org/namespaces/inkscape"
   xmlns:sodipodi="http://sodipodi.sourceforge.net/DTD/sodipodi-0.dtd"
   xmlns="http://www.w3.org/2000/svg"
   xmlns:svg="http://www.w3.org/2000/svg"><sodipodi:namedview
     id="namedview1"
     pagecolor="#ffffff"
     bordercolor="#000000"
     borderopacity="0.25"
     inkscape:showpageshadow="2"
     inkscape:pageopacity="0.0"
     inkscape:pagecheckerboard="0"
     inkscape:deskcolor="#d1d1d1"
     inkscape:document-units="mm"
     inkscape:zoom="0.75811588"
     inkscape:cx="397.03693"
     inkscape:cy="343.61502"
     inkscape:window-width="1920"
     inkscape:window-height="1111"
     inkscape:window-x="-9"
     inkscape:window-y="-9"
     inkscape:window-maximized="1"
     inkscape:current-layer="layer1" /><defs
     id="defs1" /><g
     inkscape:label="Ebene 1"
     inkscape:groupmode="layer"
     id="layer1"
     transform="translate(0,-2.0940071)"><path
       style="fill:#000000;stroke-width:1.02174"
       d="M 53.836594,115.9055 C 39.9222,114.5021 27.994474,108.9868 18.167843,99.412488 13.165938,94.539019 10.028212,90.283886 7.0492389,84.334325 4.246925,78.737585 2.6370505,73.760602 1.672303,67.711339 0.96362823,63.267732 0.96362823,55.53196 1.672303,51.088353 3.6415558,38.740535 9.1185052,28.213123 18.167843,19.381772 23.173338,14.496853 27.535901,11.434129 33.62375,8.5310001 39.358636,5.7961902 44.458467,4.2250954 50.657045,3.2835873 c 4.558476,-0.6923915 12.482947,-0.6917507 17.033295,0.00138 6.294051,0.958736 11.308273,2.502106 17.033295,5.2428223 6.119588,2.9296054 10.457288,5.9757764 15.455905,10.8539854 4.99863,4.878209 8.11999,9.11142 11.1219,15.083595 2.78082,5.532322 4.40729,10.563702 5.37364,16.622986 0.70867,4.443607 0.70867,12.179379 0,16.622986 -1.96427,12.316545 -7.46912,22.897597 -16.49554,31.706581 -4.998617,4.878207 -9.336317,7.924377 -15.455905,10.853987 -5.656128,2.70773 -10.939443,4.33397 -16.963216,5.22138 -3.499914,0.51561 -10.765927,0.73071 -13.923825,0.41221 z M 92.512407,84.490955 c 1.503456,-0.78342 2.696341,-1.957008 3.389661,-3.334824 l 0.631319,-1.254602 V 59.399846 38.898163 l -0.631319,-1.254601 c -0.69332,-1.377817 -1.886205,-2.551404 -3.389661,-3.334825 L 91.536953,33.800448 H 59.173692 26.810433 l -0.975454,0.508289 c -1.503457,0.783421 -2.696342,1.957008 -3.389662,3.334825 l -0.631318,1.254601 -0.0615,20.041254 c -0.06801,22.164747 -0.1123,21.414333 1.376893,23.330015 0.821176,1.056352 2.547863,2.286592 3.65031,2.600794 0.418829,0.119368 13.899093,0.187719 32.734652,0.165979 l 32.022598,-0.03696 z M 28.206952,78.940659 C 27.860921,78.56751 27.834547,77.049625 27.887864,60.576695 l 0.05812,-17.957193 13.399526,10.395335 c 7.369738,5.717434 14.133443,10.947782 15.030453,11.622995 1.887079,1.420472 2.919952,1.681834 4.095373,1.036305 0.401428,-0.22046 5.294858,-3.941532 10.874292,-8.269049 5.579432,-4.327518 12.149476,-9.41973 14.600097,-11.316029 l 4.455674,-3.447815 0.05813,17.946322 c 0.05331,16.462799 0.02693,17.979947 -0.319087,18.353093 -0.362367,0.390765 -1.580808,0.40677 -30.966742,0.40677 -29.385932,0 -30.604374,-0.01601 -30.966741,-0.40677 z m 18.159643,-29.563048 -12.669423,-9.814528 12.73826,-0.05725 c 7.006043,-0.03149 18.473607,-0.03149 25.483474,0 l 12.745214,0.05725 -12.534507,9.709841 c -6.893979,5.340413 -12.660302,9.75695 -12.814051,9.814528 -0.153749,0.05758 -5.980784,-4.31185 -12.948967,-9.709841 z"
       id="path1" /></g></svg>
