<?xml version="1.0" encoding="UTF-8" standalone="no"?>
<!-- Created with Inkscape (http://www.inkscape.org/) -->

<svg
   width="117.86368mm"
   height="114.47239mm"
   viewBox="0 0 117.86368 114.47239"
   version="1.1"
   id="svg1"
   xml:space="preserve"
   inkscape:version="1.4 (86a8ad7, 2024-10-11)"
   sodipodi:docname="github.svg"
   xmlns:inkscape="http://www.inkscape.org/namespaces/inkscape"
   xmlns:sodipodi="http://sodipodi.sourceforge.net/DTD/sodipodi-0.dtd"
   xmlns="http://www.w3.org/2000/svg"
   xmlns:svg="http://www.w3.org/2000/svg"><sodipodi:namedview
     id="namedview1"
     pagecolor="#ffffff"
     bordercolor="#000000"
     borderopacity="0.25"
     inkscape:showpageshadow="2"
     inkscape:pageopacity="0.0"
     inkscape:pagecheckerboard="0"
     inkscape:deskcolor="#d1d1d1"
     inkscape:document-units="mm"
     inkscape:zoom="0.75811588"
     inkscape:cx="397.03693"
     inkscape:cy="342.95549"
     inkscape:window-width="1920"
     inkscape:window-height="1111"
     inkscape:window-x="-9"
     inkscape:window-y="-9"
     inkscape:window-maximized="1"
     inkscape:current-layer="layer1" /><defs
     id="defs1" /><g
     inkscape:label="Ebene 1"
     inkscape:groupmode="layer"
     id="layer1"
     transform="translate(0,-2.0940071)"><path
       style="fill:#000000"
       d="m 40.841248,115.83562 c -1.282843,-0.32861 -5.652425,-2.12874 -7.911962,-3.25948 C 26.293199,109.25523 19.828566,104.13276 14.991727,98.362688 7.3763275,89.277968 2.7140374,78.471158 1.5306374,67.160978 1.0324974,62.400068 1.3389014,54.332308 2.1878844,49.855408 6.5924924,26.628768 24.919726,8.2925378 48.30878,3.7118678 c 3.398268,-0.66553 4.128473,-0.71451 10.788717,-0.72367 7.608252,-0.0105 9.020942,0.14092 14.72209,1.57761 10.11011,2.54776 20.06188,8.3867702 27.339993,16.0412302 8.15411,8.57575 13.16668,18.53396 15.35858,30.51209 0.59,3.22416 0.82235,12.39564 0.40585,16.01959 -1.25017,10.87758 -4.94701,20.09819 -11.55356,28.81673 -6.374024,8.411692 -14.635863,14.735672 -24.312543,18.609882 -3.43488,1.37521 -4.51681,1.61324 -5.60638,1.23341 -1.59612,-0.55641 -1.6495,-0.9164 -1.76393,-11.89524 -0.0846,-8.118292 -0.18291,-10.230332 -0.54075,-11.618752 -0.50836,-1.97245 -1.43845,-3.78711 -2.551428,-4.978 l -0.78605,-0.84107 0.86177,-0.1433 c 0.47398,-0.0788 1.975188,-0.32825 3.336028,-0.5543 6.74637,-1.12067 13.01166,-4.35402 16.52716,-8.52923 2.743,-3.25774 4.85862,-8.95316 5.49201,-14.78491 0.83078,-7.64908 -0.5296,-13.55953 -4.25323,-18.47913 l -1.34294,-1.77428 0.57323,-2.28757 c 0.90352,-3.60557 0.49269,-8.46474 -1.06122,-12.55181 -0.25481,-0.67023 -0.37533,-0.71598 -1.88575,-0.71598 -2.68158,0 -8.43353,2.27714 -12.6109,4.99253 l -1.64363,1.0684 -2.854288,-0.63774 c -4.12175,-0.92093 -6.77019,-1.18986 -11.71782,-1.18986 -4.943357,0 -7.596303,0.269 -11.703798,1.1867 l -2.840256,0.63458 -2.255608,-1.41611 c -2.343599,-1.47136 -6.839748,-3.48735 -9.445028,-4.23499 -0.828382,-0.23772 -2.13491,-0.39599 -2.903396,-0.35172 l -1.397247,0.0805 -0.451776,1.22017 c -1.351417,3.64994 -1.648095,8.47638 -0.741429,12.06176 l 0.540626,2.13789 -1.344177,1.7759 c -1.712169,2.26209 -2.723419,4.27284 -3.62093,7.19977 -0.66069,2.15461 -0.714267,2.68105 -0.721566,7.08993 -0.0086,5.17829 0.337278,7.64469 1.603138,11.43259 2.335579,6.98888 6.174556,11.04064 13.356521,14.09684 1.918245,0.81628 6.396645,1.99541 8.563468,2.2547 0.727604,0.0871 1.597655,0.21531 1.933445,0.285 l 0.610528,0.12671 -0.773756,0.98333 c -1.104616,1.4038 -1.830927,2.93955 -2.367307,5.00557 l -0.466947,1.79859 -1.849231,0.63354 c -1.479026,0.50672 -2.43188,0.63914 -4.759648,0.66146 -2.636265,0.0253 -3.052927,-0.0389 -4.423321,-0.68118 -1.995555,-0.93532 -3.796654,-2.65933 -5.634911,-5.39372 -2.29104,-3.4079 -4.912144,-5.33766 -8.061006,-5.93483 -1.841432,-0.34922 -3.444302,0.039 -3.444302,0.83418 0,0.63158 1.416412,2.08613 3.235647,3.32278 1.716532,1.16684 3.678756,3.92893 5.027633,7.07707 1.838043,4.2898 4.278138,6.480622 8.298646,7.450882 1.95872,0.4727 8.334749,0.65842 10.323237,0.30071 l 1.08829,-0.19578 0.190165,5.24635 c 0.207976,5.73778 0.02511,7.16914 -1.001902,7.84206 -0.778933,0.51038 -1.958326,0.68051 -2.952343,0.42589 z"
       id="path1" /></g></svg>
