<?xml version="1.0" encoding="UTF-8" standalone="no"?>
<!-- Created with Inkscape (http://www.inkscape.org/) -->

<svg
   width="117.86368mm"
   height="114.47239mm"
   viewBox="0 0 117.86368 114.47239"
   version="1.1"
   id="svg1"
   xml:space="preserve"
   inkscape:version="1.4 (86a8ad7, 2024-10-11)"
   sodipodi:docname="linkedin.svg"
   xmlns:inkscape="http://www.inkscape.org/namespaces/inkscape"
   xmlns:sodipodi="http://sodipodi.sourceforge.net/DTD/sodipodi-0.dtd"
   xmlns="http://www.w3.org/2000/svg"
   xmlns:svg="http://www.w3.org/2000/svg"><sodipodi:namedview
     id="namedview1"
     pagecolor="#ffffff"
     bordercolor="#000000"
     borderopacity="0.25"
     inkscape:showpageshadow="2"
     inkscape:pageopacity="0.0"
     inkscape:pagecheckerboard="0"
     inkscape:deskcolor="#d1d1d1"
     inkscape:document-units="mm"
     inkscape:zoom="0.75811588"
     inkscape:cx="397.03693"
     inkscape:cy="342.29596"
     inkscape:window-width="1920"
     inkscape:window-height="1111"
     inkscape:window-x="-9"
     inkscape:window-y="-9"
     inkscape:window-maximized="1"
     inkscape:current-layer="layer1" /><defs
     id="defs1" /><g
     inkscape:label="Ebene 1"
     inkscape:groupmode="layer"
     id="layer1"
     transform="translate(0,-2.0940071)"><path
       style="fill:#000000;stroke-width:0.970599"
       d="M 52.58128,115.99955 C 45.587985,115.25662 39.702581,113.59657 33.233329,110.54222 22.170501,105.31909 12.502079,96.088349 6.9153111,85.415592 3.386613,78.674499 1.5486133,72.650884 0.73378953,65.157087 c -0.47484199,-4.367038 -0.47484199,-7.367405 0,-11.734442 C 2.2228291,39.72821 8.2191138,27.771444 18.35756,18.28033 24.531696,12.500409 30.650722,8.7217308 38.561868,5.8035759 c 12.873846,-4.7487277 27.675038,-4.7487277 40.548883,0 7.911147,2.9181549 14.030173,6.6968331 20.204309,12.4767541 8.53108,7.986387 14.35507,18.163603 16.71991,29.217492 0.67833,3.170716 1.27974,8.712314 1.27974,11.792044 0,4.762925 -1.00638,11.633502 -2.34825,16.031589 -1.48157,4.855964 -4.47572,11.160694 -7.19417,15.148642 C 104.1799,95.74012 98.88576,101.22543 93.767929,104.98016 82.01579,113.60219 67.236286,117.55642 52.58128,115.99955 Z M 40.901227,69.819147 V 48.633727 H 34.14308 27.384932 v 21.18542 21.185418 h 6.758148 6.758147 z m 21.903013,8.816686 c 0.124433,-13.36104 0.149905,-13.619702 1.596492,-16.212506 1.179476,-2.114048 3.211029,-3.104202 6.406247,-3.122325 3.398618,-0.01927 5.340213,1.330716 6.425607,4.467727 0.363731,1.051261 0.44604,3.108167 0.566993,14.169381 l 0.141493,12.939597 6.693166,0.06771 6.693164,0.06771 -0.0051,-13.514745 c -0.0053,-14.034374 -0.178611,-17.00744 -1.17997,-20.238262 -1.920028,-6.194848 -6.33655,-9.267395 -13.76407,-9.575577 -2.675235,-0.111002 -3.418364,-0.05029 -5.189448,0.423994 -1.136901,0.30445 -2.715361,0.890815 -3.507691,1.30303 -1.581006,0.822532 -3.859905,2.824205 -4.591303,4.032775 -0.256679,0.424142 -0.55844,0.771167 -0.670577,0.771167 -0.112137,0 -0.203886,-1.257896 -0.203886,-2.795326 v -2.795325 l -6.433237,0.06786 -6.433235,0.06786 -0.06714,20.804843 c -0.03689,11.442664 -0.01132,20.947559 0.05686,21.12199 0.09468,0.242237 1.686012,0.317147 6.737208,0.317147 h 6.61324 z M 36.824521,42.394297 c 1.558003,-0.518179 3.521362,-2.243408 4.312306,-3.789276 1.926942,-3.76613 0.121697,-8.59335 -3.874603,-10.360675 -1.616327,-0.714806 -4.621962,-0.714806 -6.238289,0 -3.9963,1.767325 -5.801545,6.594545 -3.874603,10.360675 0.763929,1.493069 2.741577,3.267412 4.205903,3.77353 1.464674,0.506238 3.972819,0.513459 5.469286,0.01575 z"
       id="path1" /></g></svg>
