<?xml version="1.0" encoding="UTF-8" standalone="no"?>
<!-- Created with Inkscape (http://www.inkscape.org/) -->

<svg
   width="208.97728mm"
   height="153.61363mm"
   viewBox="0 0 208.97728 153.61363"
   version="1.1"
   id="svg1"
   xml:space="preserve"
   inkscape:version="1.4 (86a8ad7, 2024-10-11)"
   sodipodi:docname="mail.svg"
   xmlns:inkscape="http://www.inkscape.org/namespaces/inkscape"
   xmlns:sodipodi="http://sodipodi.sourceforge.net/DTD/sodipodi-0.dtd"
   xmlns="http://www.w3.org/2000/svg"
   xmlns:svg="http://www.w3.org/2000/svg"><sodipodi:namedview
     id="namedview1"
     pagecolor="#ffffff"
     bordercolor="#000000"
     borderopacity="0.25"
     inkscape:showpageshadow="2"
     inkscape:pageopacity="0.0"
     inkscape:pagecheckerboard="0"
     inkscape:deskcolor="#d1d1d1"
     inkscape:document-units="mm"
     inkscape:zoom="1.2935185"
     inkscape:cx="392.72727"
     inkscape:cy="142.24767"
     inkscape:window-width="3200"
     inkscape:window-height="1711"
     inkscape:window-x="2391"
     inkscape:window-y="-9"
     inkscape:window-maximized="1"
     inkscape:current-layer="layer1" /><defs
     id="defs1" /><g
     inkscape:label="Ebene 1"
     inkscape:groupmode="layer"
     id="layer1"
     transform="translate(-1.0227273,-143.38636)"><path
       style="fill:#000000;stroke-width:1.2795"
       d="M 18.740311,294.47727 C 11.258302,293.38356 4.6505044,287.21541 3.2823271,280.04778 3.0567181,278.86585 2.9364568,258.04157 2.9364568,220.15719 c 0,-64.39783 -0.1587303,-59.88322 2.2598663,-64.27497 2.220527,-4.0321 5.8166609,-7.03077 10.4263169,-8.69411 l 2.474713,-0.89297 85.844547,-0.0892 c 94.37998,-0.0982 89.13642,-0.20758 93.74707,1.95667 4.67415,2.19406 9.07946,7.79791 10.00518,12.7273 0.21829,1.16233 0.33848,22.56954 0.33525,59.70896 -0.004,50.45059 -0.0712,58.17422 -0.51956,60.05225 -1.41818,5.94042 -6.35202,11.20948 -12.39721,13.23952 l -2.23908,0.75191 -86.19567,0.0448 c -47.407619,0.0245 -86.979522,-0.0699 -87.937569,-0.20993 z m 174.056489,-10.01935 1.28603,-0.57986 -4.14633,-3.36388 c -2.28049,-1.85014 -6.93224,-5.63451 -10.33723,-8.40971 -3.40501,-2.77522 -8.17372,-6.65416 -10.59714,-8.61991 -10.28507,-8.34264 -29.07958,-23.63457 -35.19888,-28.63914 -5.80068,-4.74397 -6.68128,-5.35241 -7.24426,-5.00527 -0.35248,0.21734 -4.28002,3.38709 -8.72787,7.04387 -10.924,8.98111 -10.38729,8.60693 -12.34568,8.60693 -2.02425,0 -1.42344,0.43711 -16.427856,-11.95155 -2.195885,-1.81307 -4.277529,-3.47223 -4.625873,-3.68703 -0.705897,-0.43526 0.237109,-1.14421 -15.095424,11.34877 -4.571297,3.7247 -15.517134,12.6329 -24.324082,19.796 -8.806949,7.1631 -18.739383,15.24167 -22.072076,17.95236 l -6.059443,4.92856 1.289723,0.57986 c 1.209949,0.544 6.610645,0.57986 87.315031,0.57986 80.70583,0 86.10485,-0.0358 87.31136,-0.57986 z M 21.21132,268.01549 c 3.908775,-3.17401 13.086048,-10.64043 20.393942,-16.59206 13.864906,-11.29172 17.654501,-14.37536 28.10728,-22.87122 3.466564,-2.81757 6.302844,-5.24424 6.302844,-5.3926 0,-0.26795 -2.557773,-2.38568 -32.908759,-27.24706 -8.69579,-7.12298 -18.723463,-15.34805 -22.283719,-18.27794 -3.560256,-2.9299 -6.894801,-5.62715 -7.410101,-5.99389 l -0.93691,-0.66684 v 52.023 52.023 l 0.814281,-0.61674 c 0.447855,-0.33921 4.012369,-3.21365 7.921142,-6.38765 z M 198.495,222.80682 c 0,-43.22219 -0.0757,-51.77591 -0.45653,-51.55154 -0.2511,0.14795 -5.71642,4.58318 -12.14518,9.85608 -19.93634,16.35187 -40.17892,32.93753 -45.76404,37.49656 -2.93925,2.39925 -5.34409,4.46269 -5.34409,4.5854 0,0.12269 0.49826,0.5991 1.10726,1.05859 0.60899,0.4595 3.03611,2.40749 5.39359,4.32888 6.56415,5.34988 15.62335,12.71856 29.10171,23.67104 6.74575,5.48159 14.1814,11.53235 16.52367,13.44613 7.5442,6.16411 11.04977,8.92942 11.31976,8.92942 0.14511,0 0.26385,-23.31925 0.26385,-51.82056 z m -85.60508,5.71012 c 4.07865,-3.34411 9.86873,-8.08591 12.86683,-10.53734 7.64206,-6.24857 23.37494,-19.13262 37.84849,-30.99504 6.76302,-5.54293 16.99663,-13.92085 22.74134,-18.61761 5.74472,-4.69676 10.44494,-8.64065 10.44494,-8.76421 0,-0.40592 -2.19005,-2.2868 -3.40694,-2.92599 -1.15265,-0.60545 -4.07151,-0.62922 -87.50338,-0.71303 -83.564559,-0.0839 -86.356598,-0.0667 -87.746087,0.54012 -1.440737,0.62926 -3.955744,2.58379 -3.955744,3.07422 0,0.14424 2.03139,1.92321 4.5142,3.95325 5.818662,4.75756 31.292191,25.61259 40.926802,33.50654 4.099471,3.35883 9.861262,8.07484 12.803978,10.48001 14.029796,11.46701 26.722618,21.87999 29.654151,24.32776 1.78013,1.48635 3.27239,2.71351 3.31615,2.727 0.0438,0.0135 3.41662,-2.71157 7.49527,-6.05568 z"
       id="path1" /></g></svg>
