<?xml version="1.0" encoding="UTF-8" standalone="no"?>
<!-- Created with Inkscape (http://www.inkscape.org/) -->

<svg
   width="181.42499mm"
   height="357.32498mm"
   viewBox="0 0 181.42499 357.32497"
   version="1.1"
   id="svg1"
   xml:space="preserve"
   inkscape:version="1.4 (86a8ad7, 2024-10-11)"
   sodipodi:docname="phone-up.svg"
   xmlns:inkscape="http://www.inkscape.org/namespaces/inkscape"
   xmlns:sodipodi="http://sodipodi.sourceforge.net/DTD/sodipodi-0.dtd"
   xmlns="http://www.w3.org/2000/svg"
   xmlns:svg="http://www.w3.org/2000/svg"><sodipodi:namedview
     id="namedview1"
     pagecolor="#ffffff"
     bordercolor="#000000"
     borderopacity="0.25"
     inkscape:showpageshadow="2"
     inkscape:pageopacity="0.0"
     inkscape:pagecheckerboard="0"
     inkscape:deskcolor="#d1d1d1"
     inkscape:document-units="mm"
     inkscape:zoom="3.0530973"
     inkscape:cx="104.15652"
     inkscape:cy="121.02464"
     inkscape:window-width="1920"
     inkscape:window-height="1111"
     inkscape:window-x="-9"
     inkscape:window-y="-9"
     inkscape:window-maximized="1"
     inkscape:current-layer="layer1"
     showgrid="false" /><defs
     id="defs1"><pattern
       id="EMFhbasepattern"
       patternUnits="userSpaceOnUse"
       width="6"
       height="6"
       x="0"
       y="0" /></defs><g
     inkscape:label="Ebene 1"
     inkscape:groupmode="layer"
     id="layer1"
     transform="translate(-30.1625,-60.854167)"><ellipse
       style="display:inline;fill:none;fill-opacity:1;stroke:#000000;stroke-width:6.84996;stroke-linecap:square;stroke-dasharray:none;stroke-opacity:1"
       id="path1-1"
       cx="45.296722"
       cy="136.4052"
       rx="9.9590464"
       ry="10.24422" /><ellipse
       style="display:inline;fill:none;fill-opacity:1;stroke:#000000;stroke-width:2.72013;stroke-linecap:square;stroke-dasharray:none;stroke-opacity:1"
       id="path1-1-5"
       cx="45.211037"
       cy="136.18114"
       rx="3.9005907"
       ry="4.1244683" /><ellipse
       style="fill:none;fill-opacity:1;stroke:#000000;stroke-width:1.04342;stroke-linecap:square;stroke-dasharray:none;stroke-opacity:1"
       id="path1-1-5-2-8"
       cx="45.257042"
       cy="136.25095"
       rx="1.5403689"
       ry="1.5367721" /><ellipse
       style="display:inline;fill:none;fill-opacity:1;stroke:#000000;stroke-width:6.84996;stroke-linecap:square;stroke-dasharray:none;stroke-opacity:1"
       id="path1-1-8"
       cx="45.76059"
       cy="75.042564"
       rx="9.9590464"
       ry="10.24422" /><ellipse
       style="display:inline;fill:none;fill-opacity:1;stroke:#000000;stroke-width:2.72013;stroke-linecap:square;stroke-dasharray:none;stroke-opacity:1"
       id="path1-1-5-8"
       cx="45.674904"
       cy="74.818504"
       rx="3.9005907"
       ry="4.1244683" /><ellipse
       style="fill:none;fill-opacity:1;stroke:#000000;stroke-width:1.03238;stroke-linecap:square;stroke-dasharray:none;stroke-opacity:1"
       id="path1-1-5-2-8-2"
       cx="45.677582"
       cy="74.888313"
       rx="1.5025573"
       ry="1.5422908" /><path
       style="fill:none;stroke:#000000;stroke-width:3.42884;stroke-linecap:square;stroke-dasharray:none"
       d="m 44.080817,145.70053 c 44.568384,58.77787 53.064278,-19.6355 100.201803,2.23582 11.69291,5.42538 18.66162,35.56531 4.86391,52.05008 -15.78538,18.85954 -75.816113,74.22814 -92.599246,61.66979 -33.846534,-25.32642 84.363956,-32.92172 71.846456,14.96042 -3.33053,12.73998 -21.80851,34.33302 -51.007135,48.19083 -43.994047,20.87977 96.808145,85.78667 140.594255,33.12705"
       id="path2"
       sodipodi:nodetypes="csssssc" /><path
       style="fill:#000000;fill-opacity:1;stroke:none;stroke-width:5.64604;stroke-linecap:square;stroke-dasharray:none"
       d="m 37.453221,86.760234 c 6.538703,3.562652 11.395756,3.235665 16.688605,-0.200704 2.312205,-1.501194 -0.526673,8.893244 -0.630061,19.48824 -0.100507,10.2998 2.677965,20.94778 0.501464,19.02489 -5.976934,-5.28048 -15.400201,-2.31721 -17.113806,-0.18314 -2.826839,3.52046 0.408376,-7.54558 1.044928,-18.84528 0.545659,-9.686215 -1.668447,-19.925475 -0.49113,-19.284006 z"
       id="path4"
       sodipodi:nodetypes="sssssss" /></g></svg>
