<?xml version="1.0" encoding="UTF-8" standalone="no"?>
<!-- Created with Inkscape (http://www.inkscape.org/) -->

<svg
   width="210mm"
   height="297mm"
   viewBox="0 0 210 297"
   version="1.1"
   id="svg1"
   xml:space="preserve"
   inkscape:version="1.4 (86a8ad7, 2024-10-11)"
   sodipodi:docname="plant.svg"
   xmlns:inkscape="http://www.inkscape.org/namespaces/inkscape"
   xmlns:sodipodi="http://sodipodi.sourceforge.net/DTD/sodipodi-0.dtd"
   xmlns="http://www.w3.org/2000/svg"
   xmlns:svg="http://www.w3.org/2000/svg"><sodipodi:namedview
     id="namedview1"
     pagecolor="#ffffff"
     bordercolor="#000000"
     borderopacity="0.25"
     inkscape:showpageshadow="2"
     inkscape:pageopacity="0.0"
     inkscape:pagecheckerboard="0"
     inkscape:deskcolor="#d1d1d1"
     inkscape:document-units="mm"
     inkscape:zoom="0.75811588"
     inkscape:cx="397.03693"
     inkscape:cy="561.91937"
     inkscape:window-width="1795"
     inkscape:window-height="1356"
     inkscape:window-x="3641"
     inkscape:window-y="125"
     inkscape:window-maximized="0"
     inkscape:current-layer="layer1" /><defs
     id="defs1" /><g
     inkscape:label="Ebene 1"
     inkscape:groupmode="layer"
     id="layer1"><path
       style="fill:#62c699;fill-opacity:1;stroke-width:7.9982;stroke-linecap:square"
       d="m 128.97323,29.867036 c -5.42445,30.693536 25.03341,41.978083 -7.66564,87.462454 -20.25445,28.17393 19.17097,49.82926 20.98962,71.23221 L 90.680733,223.01363 C 90.489514,189.81423 66.779368,124.12936 74.284596,82.068036 81.361536,42.40691 131.90504,13.277839 128.97323,29.867036 Z"
       id="path7"
       sodipodi:nodetypes="ssccss" /><path
       style="fill:#669f85;fill-opacity:1;stroke-width:5.72574;stroke-linecap:square"
       d="M 50.73494,159.82202 C 51.169366,144.12442 33.77602,126.50724 31.397072,100.55022 28.592693,69.951255 39.476087,31.026168 20.662946,17.446753 -7.4077331,-2.8147968 82.225363,28.474169 113.37215,160.51191 c 2.97209,12.59928 -63.613173,34.57571 -62.63721,-0.68989 z"
       id="path3"
       sodipodi:nodetypes="sssss" /><path
       style="fill:#669f85;fill-opacity:1;stroke-width:5.95645;stroke-linecap:square"
       d="m 152.14807,172.60543 c 0.51382,-14.90164 26.91622,-30.14884 30.61796,-54.48513 4.77655,-31.402384 -11.04149,-71.965724 11.04095,-83.922362 31.64178,-17.132595 -55.27804,-0.458267 -97.433705,127.548582 -4.022573,12.21463 54.561385,46.04973 55.774795,10.85891 z"
       id="path4"
       sodipodi:nodetypes="sssss" /><path
       style="fill:#8e7660;fill-opacity:1;stroke-width:4.63963;stroke-linecap:square"
       d="m 30.154248,173.59631 16.49466,103.192 122.585282,-0.78773 18.36905,-103.97971 z"
       id="path2" /><path
       style="fill:#615142;fill-opacity:1;stroke-width:4.6686;stroke-linecap:square"
       d="m 26.958281,275.60672 157.523189,-1.18159 -5.69361,20.48086 -146.515546,-1.1816 z"
       id="path1" /><rect
       style="fill:#615142;fill-opacity:1;stroke-width:4.66648;stroke-linecap:square"
       id="rect1"
       width="192.64865"
       height="24.025614"
       x="12.215041"
       y="170.2515" /></g></svg>
