<svg
            height="100px"
            width="100px"
            version="1.1"
            id="Layer_1"
            xmlns="http://www.w3.org/2000/svg"
            xmlns:xlink="http://www.w3.org/1999/xlink"
            viewBox="0 0 512 512"
            xml:space="preserve"
            fill="#000000"
            transform="matrix(1, 0, 0, 1, 0, 0)rotate(0)"
          >
            <g id="SVGRepo_bgCarrier" stroke-width="0"></g>
            <g
              id="SVGRepo_tracerCarrier"
              stroke-linecap="round"
              stroke-linejoin="round"
            ></g>
            <g id="SVGRepo_iconCarrier">
              <g>
                <path
                  style="fill: #669f85"
                  d="M168.712,247.172C149.75,105.975,57.378,79.448,57.378,79.448 C155.93,37.65,229.772,62.499,241.178,247.172H168.712z"
                ></path>
                <path
                  style="fill: #73c5a0"
                  d="M244.44,247.172h-3.24c-4.696-76.006-19.968-124.928-43.193-153.273 C204.972,31.17,267.162,0,313.384,0c-16.94,16.931-42.567,43.352-44.006,133.42C256.993,160.035,247.998,196.89,244.44,247.172"
                ></path>
                <path
                  style="fill: #669f85"
                  d="M303.67,247.172h-59.207c19.827-280.47,209.028-143.122,210.158-141.241 C377.168,105.931,323.082,178.45,303.67,247.172"
                ></path>
                <g>
                  <polygon
                    style="fill: #8e7660"
                    points="57.382,291.31 428.141,291.31 428.141,247.172 57.382,247.172 "
                  ></polygon>
                  <polygon
                    style="fill: #8e7660"
                    points="384.003,512 101.52,512 92.692,476.69 392.83,476.69 "
                  ></polygon>
                </g>
                <polygon
                  style="fill: #b2967d"
                  points="361.934,476.69 392.83,291.31 92.692,291.31 123.589,476.69 "
                ></polygon>
                <g>
                  <path
                    style="fill: #d9aa94"
                    d="M207.451,353.103h-8.828c-4.873,0-8.828-3.946-8.828-8.828c0-4.882,3.955-8.828,8.828-8.828h8.828 c4.873,0,8.828,3.946,8.828,8.828C216.279,349.158,212.324,353.103,207.451,353.103"
                  ></path>
                  <path
                    style="fill: #d9aa94"
                    d="M251.589,423.724h-8.828c-4.873,0-8.828-3.946-8.828-8.828c0-4.882,3.955-8.828,8.828-8.828h8.828 c4.873,0,8.828,3.946,8.828,8.828C260.416,419.778,256.462,423.724,251.589,423.724"
                  ></path>
                  <path
                    style="fill: #d9aa94"
                    d="M373.656,406.356c-0.486-0.079-0.918-0.291-1.421-0.291h-85.336c-4.873,0-8.828,3.955-8.828,8.828 c0,4.882,3.955,8.828,8.828,8.828h83.862L373.656,406.356z"
                  ></path>
                  <path
                    style="fill: #d9aa94"
                    d="M163.313,335.448H101.52c-0.503,0-0.945,0.203-1.421,0.291l2.895,17.364h60.319 c4.873,0,8.828-3.946,8.828-8.828C172.141,339.394,168.186,335.448,163.313,335.448"
                  ></path>
                </g>
              </g>
            </g>
          </svg>