 <svg
              fill="#261e1b"
              version="1.1"
              id="Capa_1"
              xmlns="http://www.w3.org/2000/svg"
              xmlns:xlink="http://www.w3.org/1999/xlink"
              viewBox="0 0 351.596 351.596"
              xml:space="preserve"
              transform="matrix(-1, 0, 0, 1, 0, 0)"
              stroke="#261e1b"
            >
              <g id="SVGRepo_bgCarrier" stroke-width="0"></g>
              <g
                id="SVGRepo_tracerCarrier"
                stroke-linecap="round"
                stroke-linejoin="round"
              ></g>
              <g id="SVGRepo_iconCarrier">
                <g>
                  <g>
                    <path
                      d="M250.072,225.694c-0.771-1.753-2.415-2.973-4.311-3.192c-4.719-0.552-14.504-2.793-19.265-6.557 c3.638-7.785,7.007-18.431,7.007-28.21c0-32.967-32.152-64.14-66.593-64.14c-0.005,0-0.017,0-0.027,0 c-2.118,0.163-51.996,4.333-65.176,32.918c-0.974,2.113-0.467,4.604,1.231,6.184c1.698,1.576,4.237,1.88,6.273,0.762 c0.031-0.016,1.719-0.94,4.338-1.853c-6.795,7.293-13.601,17.242-12.284,26.858c0.287,2.088,1.795,3.8,3.822,4.399 c2.031,0.607,4.241-0.075,5.616-1.681c0.152-0.179,3.179-3.622,9.339-5.685c1.165,3.187,2.863,7.428,4.801,11.019 c1.021,1.899,1.11,3.8,0.283,5.826c-1.302,3.16-4.735,6.079-8.585,7.255c-3.885,1.229-8.116,4.168-8.347,8.762 c-0.302,5.916,5.918,9.16,9.239,10.64c0.963,1.05,3.071,3.717,3.071,6.893c0,0.462,0.058,0.93,0.176,1.371 c0.013,0.042,1.142,4.882-0.638,9.38c-0.399,0.813-2.252,5.093,0.257,9.113c1.262,2.025,3.994,4.436,9.801,4.436 c5.428,0,13.26-2.026,23.499-6.036c0.005-0.011,0.672-0.184,1.441-0.184c0.491,0,0.769,0.088,0.748,0.021 c0.134,0.247,2.979,6.11-13.67,33.539c-3.015,4.96-4.677,18.099-5.112,22.009c-0.284,2.537,1.247,4.914,3.667,5.708 c0.554,0.188,1.118,0.272,1.677,0.272c1.883,0,3.677-0.997,4.662-2.698c0.176-0.309,18.168-30.95,50.376-34.63 c10.824-1.233,17.983-2.484,18.814-8.32c0.177-1.229,0.041-2.311-0.348-3.267c0.939,0.925,2.194,1.476,3.528,1.54 c1.764-0.016,3.517-0.74,4.587-2.2l25.533-34.94C250.612,229.473,250.833,227.447,250.072,225.694z M204.46,259.049 c-3.438-1.438-10.588-4.432-11.58-6.09c-1.387-5.051-0.95-6.835-1.057-6.987c0.273-0.058,1.298-0.299,4.199,0.498 c6.132,1.67,14.06,11.341,18.217,17.844C212.118,262.256,208.539,260.753,204.46,259.049z"
                    ></path>
                    <path
                      d="M200.261,56.909L180.855,3.488c-0.038-0.112-0.129-0.183-0.174-0.291c-0.203-0.456-0.455-0.879-0.778-1.267 c-0.134-0.169-0.278-0.318-0.437-0.462c-0.31-0.302-0.667-0.549-1.053-0.764c-0.178-0.107-0.338-0.215-0.532-0.296 c-0.092-0.042-0.155-0.113-0.252-0.14c-0.236-0.086-0.483-0.052-0.728-0.107C176.527,0.082,176.167,0,175.779,0 c-0.349,0.005-0.672,0.087-1.005,0.149c-0.268,0.056-0.542,0.027-0.812,0.118c-0.087,0.034-0.144,0.108-0.226,0.14 c-0.322,0.13-0.585,0.34-0.881,0.538c-0.294,0.199-0.596,0.359-0.843,0.609c-0.221,0.215-0.368,0.494-0.548,0.75 c-0.226,0.323-0.452,0.625-0.596,0.984c-0.035,0.076-0.097,0.118-0.126,0.199l-19.35,53.406 c-49.87,14.911-87.266,74.481-87.266,145.535c0,82.252,50.095,149.167,111.67,149.167c61.571,0,111.67-66.915,111.67-149.167 C287.479,131.396,250.104,71.846,200.261,56.909z M175.813,21.082l12,33.048c-3.942-0.564-7.947-0.877-12.005-0.877 c-4.042,0-8.037,0.308-11.971,0.866L175.813,21.082z M175.808,340.845c-55.647,0-100.917-62.101-100.917-138.416 c0-76.322,45.271-138.42,100.917-138.42c55.649,0,100.919,62.098,100.919,138.42C276.728,278.744,231.457,340.845,175.808,340.845 z"
                    ></path>
                  </g>
                </g>
              </g>
            </svg>