<?xml version="1.0" encoding="UTF-8" standalone="no"?>
<!-- Created with Inkscape (http://www.inkscape.org/) -->

<svg
   width="210mm"
   height="297mm"
   viewBox="0 0 210 297"
   version="1.1"
   id="svg1"
   inkscape:version="1.4 (86a8ad7, 2024-10-11)"
   sodipodi:docname="skills-frame.svg"
   xmlns:inkscape="http://www.inkscape.org/namespaces/inkscape"
   xmlns:sodipodi="http://sodipodi.sourceforge.net/DTD/sodipodi-0.dtd"
   xmlns="http://www.w3.org/2000/svg"
   xmlns:svg="http://www.w3.org/2000/svg">
  <sodipodi:namedview
     id="namedview1"
     pagecolor="#ffffff"
     bordercolor="#000000"
     borderopacity="0.25"
     inkscape:showpageshadow="2"
     inkscape:pageopacity="0.0"
     inkscape:pagecheckerboard="0"
     inkscape:deskcolor="#d1d1d1"
     inkscape:document-units="mm"
     inkscape:zoom="0.75811588"
     inkscape:cx="397.03693"
     inkscape:cy="561.25984"
     inkscape:window-width="1920"
     inkscape:window-height="1111"
     inkscape:window-x="-9"
     inkscape:window-y="-9"
     inkscape:window-maximized="1"
     inkscape:current-layer="layer1" />
  <defs
     id="defs1" />
  <g
     inkscape:label="Ebene 1"
     inkscape:groupmode="layer"
     id="layer1">
    <path
       id="rect2"
       style="fill:#f6f5f5;stroke:#261e1b;stroke-width:7.45402;stroke-linecap:square"
       d="M 15.768109,21.209941 H 192.8467 V 281.69981 H 15.768109 Z" />
    <path
       style="fill:#000000;stroke-width:0.374064"
       d="m 61.421513,204.95564 c 0.197096,-0.16962 0.44754,-0.32479 0.556273,-0.34492 0.108653,-0.0201 0.785074,0.0309 1.503014,0.11343 7.746786,0.89062 14.677529,-0.49417 17.250005,-3.44663 0.63689,-0.73096 1.557258,-2.68035 2.888398,-6.11715 1.384904,-3.57586 2.699606,-6.32048 3.629122,-7.57606 1.135966,-1.53459 2.377939,-2.39956 3.563135,-2.48153 0.744453,-0.0515 1.214691,0.0655 4.834168,1.20233 3.305015,1.03806 4.886732,1.46706 6.378792,1.73007 3.70353,0.65286 6.46005,0.24562 9.06855,-1.33979 1.43491,-0.8721 2.19169,-0.92875 3.24482,-0.24286 1.10658,0.7208 2.01518,2.00027 4.22716,5.9532 1.41694,2.53206 2.27488,3.78229 3.05869,4.45714 0.53469,0.46027 0.56527,0.47298 2.88755,1.1936 4.07421,1.26423 5.33259,1.72331 7.4832,2.73012 2.25957,1.0577 3.22184,1.64924 4.63666,2.84977 3.66754,3.11211 5.83787,7.89469 6.69684,14.75727 1.65314,13.20741 -1.3095,24.98173 -8.81991,35.05259 -4.97889,6.67635 -12.24577,12.44296 -19.53907,15.50521 -4.80741,2.01847 -10.03748,2.6033 -15.338867,1.71512 -6.804836,-1.14001 -12.186698,-4.49419 -15.446005,-9.62653 -0.980895,-1.54458 -1.501947,-2.58741 -3.455985,-6.91687 -0.914258,-2.02561 -1.926033,-4.19968 -2.24842,-4.83129 -1.662634,-3.25722 -3.336024,-5.49545 -5.235123,-7.00216 -0.871873,-0.69172 -2.633299,-1.50582 -3.669997,-1.69623 -0.480594,-0.0884 -1.092008,-0.24618 -1.35864,-0.35087 l -0.484791,-0.19032 -0.220638,-0.94535 c -0.366967,-1.57234 -6.673612,-32.59416 -6.684651,-32.88121 -0.01768,-0.45991 0.204541,-0.93359 0.595738,-1.26996 z m 33.881075,27.2096 c -0.297865,1.18121 -0.309893,1.64652 -0.04603,1.77885 0.05438,0.0273 0.306534,0.0735 0.560593,0.10266 0.254017,0.0292 0.460871,0.0643 0.459715,0.0781 -4.64e-4,0.0141 0.02363,0.27851 0.05505,0.5884 l 0.05714,0.56339 -0.483139,0.39631 c -0.725695,0.59527 -0.73276,0.74807 -0.09023,1.95693 0.296424,0.55771 0.598318,1.04379 0.670871,1.08018 0.236358,0.11853 0.484258,0.0295 0.920357,-0.33046 l 0.428551,-0.35374 0.409225,0.28578 c 0.22502,0.15726 0.41631,0.32588 0.42501,0.37493 0.009,0.0491 -0.0434,0.32439 -0.11594,0.61188 -0.0827,0.32827 -0.0887,0.61584 -0.016,0.77283 0.10777,0.23278 0.1911,0.26095 1.21071,0.41005 0.630189,0.0922 1.175699,0.11195 1.285229,0.0468 0.18302,-0.10893 0.38044,-0.52858 0.56856,-1.20816 0.0639,-0.23087 0.15445,-0.29033 0.60489,-0.40749 l 0.52988,-0.13669 0.24393,0.43659 c 0.43716,0.7824 0.60816,0.75728 1.92542,-0.2828 1.03653,-0.81845 1.14632,-1.06764 0.77766,-1.76478 l -0.26666,-0.5042 0.28934,-0.46502 c 0.15902,-0.25583 0.34211,-0.49622 0.40654,-0.53435 0.0644,-0.0382 0.32838,-0.0346 0.58667,0.008 0.47709,0.0785 0.72107,-0.0301 0.90891,-0.40469 0.19769,-0.39418 0.62929,-2.31758 0.57817,-2.57666 -0.0486,-0.24635 -0.0891,-0.27143 -0.65177,-0.40193 -0.53996,-0.12528 -0.59927,-0.15885 -0.59347,-0.33601 0.004,-0.10841 -0.0183,-0.35924 -0.0484,-0.55746 l -0.055,-0.36048 0.51014,-0.43068 c 0.71004,-0.59947 0.71541,-0.74824 0.0703,-1.94458 -0.65404,-1.21289 -0.79251,-1.28196 -1.5256,-0.76064 l -0.52493,0.37315 -0.34535,-0.24032 c -0.50311,-0.35009 -0.50115,-0.34497 -0.35763,-0.91632 0.25342,-1.00895 0.15971,-1.10465 -1.28949,-1.31717 -1.20429,-0.17658 -1.42415,-0.0688 -1.62204,0.79544 -0.0734,0.32098 -0.13592,0.58827 -0.13879,0.594 -0.003,0.005 -0.25225,0.0945 -0.55425,0.19732 l -0.54898,0.18692 -0.22692,-0.42817 c -0.12476,-0.23558 -0.335399,-0.4826 -0.468019,-0.54911 -0.27179,-0.13631 -0.36609,-0.0847 -1.60147,0.87667 -0.962386,0.74891 -1.040422,0.93769 -0.68288,1.652 0.263364,0.52616 0.251112,0.60589 -0.193108,1.25498 -0.213856,0.31275 -0.260101,0.33006 -0.690955,0.25916 -0.27711,-0.0456 -0.570103,-0.0122 -0.732935,0.0835 -0.149162,0.0877 -0.278989,0.17471 -0.288349,0.19338 -0.0095,0.019 -0.155492,0.58323 -0.324805,1.25448 z m 5.212462,-0.46502 c 0.65811,-0.62976 1.41049,-0.79637 2.08003,-0.46059 0.51785,0.25971 0.75214,0.60206 0.85795,1.25331 0.16088,0.99043 -0.29243,1.92664 -1.20926,2.49758 -0.71834,0.4473 -1.69417,0.24721 -2.16143,-0.44321 -0.555477,-0.82075 -0.363277,-2.08534 0.43273,-2.84708 z m -1.597297,17.00729 c -0.44014,1.72509 -0.446,1.78074 -0.21949,2.08509 0.1404,0.18869 0.28215,0.25114 0.73471,0.32427 0.30844,0.0498 0.612967,0.11674 0.676767,0.14873 0.0637,0.032 0.15124,0.3959 0.19431,0.80868 l 0.0783,0.7505 -0.573047,0.43518 c -0.60375,0.45849 -0.90685,0.90291 -0.85867,1.25895 0.0434,0.32053 1.386247,2.71792 1.575547,2.81286 0.25221,0.12649 0.71233,-0.0571 1.28783,-0.51402 l 0.51942,-0.41236 0.30927,0.23185 c 0.83725,0.6273 0.8096,0.56826 0.62613,1.32858 -0.18875,0.78263 -0.13509,1.28396 0.15309,1.42849 0.33076,0.16588 2.63298,0.47182 2.93998,0.39071 0.37116,-0.0981 0.62162,-0.50618 0.82464,-1.34379 0.0855,-0.35289 0.17291,-0.6466 0.19393,-0.65283 0.0208,-0.006 0.34347,-0.0957 0.71628,-0.19908 l 0.67784,-0.18789 0.39638,0.65026 c 0.59112,0.96974 0.69163,0.95604 2.30062,-0.31392 1.69693,-1.33934 1.78181,-1.52432 1.17644,-2.56343 l -0.30132,-0.5172 0.41778,-0.70567 c 0.22978,-0.38814 0.4534,-0.72033 0.49705,-0.73818 0.0436,-0.0178 0.35891,0.0118 0.70081,0.0658 1.06965,0.16905 1.19616,0.0168 1.72499,-2.07607 0.44409,-1.75754 0.44247,-2.03121 -0.0133,-2.2598 -0.14161,-0.071 -0.48743,-0.15652 -0.7685,-0.18996 -0.50742,-0.0605 -0.51119,-0.0631 -0.54075,-0.36271 -0.0164,-0.16595 -0.0572,-0.52116 -0.0907,-0.78927 l -0.0609,-0.48751 0.59571,-0.4763 c 0.64603,-0.51656 0.84186,-0.80646 0.8183,-1.2113 -0.022,-0.37696 -1.31254,-2.69405 -1.57441,-2.8267 -0.28078,-0.14179 -0.59056,-0.0195 -1.22672,0.48559 l -0.51024,0.40505 -0.54567,-0.35612 c -0.30009,-0.19591 -0.55551,-0.39567 -0.56755,-0.444 -0.012,-0.0483 0.061,-0.44685 0.16228,-0.88548 0.15957,-0.69096 0.1595,-0.83508 -3.8e-4,-1.07866 -0.17583,-0.26786 -0.25066,-0.29082 -1.58392,-0.48642 -1.10781,-0.16253 -1.46323,-0.17189 -1.70588,-0.0448 -0.37177,0.19466 -0.40129,0.25012 -0.63078,1.18552 l -0.18178,0.74094 -0.73602,0.20168 -0.73607,0.20167 -0.30903,-0.58323 c -0.32253,-0.60867 -0.62813,-0.84498 -0.96663,-0.74742 -0.29015,0.0836 -2.67762,1.97421 -2.79921,2.21665 -0.18179,0.36249 -0.1331,0.64213 0.22304,1.2799 0.31944,0.57208 0.33376,0.64435 0.17183,0.86734 -0.0972,0.13383 -0.31131,0.45153 -0.47569,0.70617 l -0.2991,0.46288 -0.61733,-0.0914 c -0.66646,-0.0989 -1.143217,0.0416 -1.316907,0.38795 -0.06,0.11972 -0.27767,0.87798 -0.48353,1.68484 z m 7.100987,-0.82408 c 0.69677,-0.58946 1.39663,-0.79522 2.14296,-0.63 0.81737,0.18101 1.34774,0.76865 1.5357,1.70218 0.13462,0.66844 0.0985,1.12324 -0.14016,1.76492 -0.58519,1.57354 -2.26966,2.43628 -3.52234,1.80416 -1.15422,-0.58333 -1.5203,-2.02316 -0.88633,-3.4913 0.25513,-0.59109 0.33696,-0.69834 0.87017,-1.14996 z m 5.48451,-23.84715 c 0.0711,0.24735 0.28934,0.52666 0.69226,0.88553 0.3237,0.28827 0.60234,0.5692 0.61925,0.62423 0.017,0.0551 -0.0679,0.37427 -0.18832,0.7095 -0.12039,0.33522 -0.28285,0.79707 -0.36129,1.02619 l -0.14228,0.41677 -0.63812,0.10706 c -0.93603,0.15703 -1.40297,0.35458 -1.64597,0.69634 -0.25638,0.36052 -0.25509,0.34605 -0.23374,2.84344 0.0232,2.69481 0.10973,2.81816 1.76634,2.51605 l 0.86013,-0.15686 0.3839,0.92869 c 0.3166,0.7659 0.35815,0.96029 0.23709,1.10902 -0.0807,0.0993 -0.37872,0.49077 -0.6622,0.8702 -0.48119,0.644 -0.51778,0.71696 -0.55226,1.09718 -0.022,0.24215 0.0398,0.51874 0.15255,0.68231 0.31152,0.45186 2.65933,2.5067 2.92758,2.56222 0.45989,0.0952 0.84681,-0.17472 1.52875,-1.06649 l 0.63359,-0.82846 0.31818,0.0931 c 0.17499,0.0512 0.58548,0.15672 0.91212,0.23451 l 0.59395,0.14137 0.0125,1.03362 c 0.0134,1.10861 0.19592,1.55899 0.66427,1.63887 0.12881,0.0221 1.0778,-0.11964 2.10893,-0.31469 2.50257,-0.47336 2.64973,-0.60402 2.64507,-2.34882 -0.002,-0.68754 0.0411,-1.05522 0.12966,-1.10988 0.0729,-0.0449 0.46665,-0.30681 0.87518,-0.5819 0.40851,-0.2751 0.76471,-0.48955 0.79152,-0.47657 0.0269,0.013 0.3387,0.2872 0.69315,0.60918 0.60293,0.54792 0.66677,0.58422 0.99279,0.56457 0.19166,-0.0116 0.45137,-0.0951 0.57722,-0.18563 0.26899,-0.19355 2.57644,-3.20301 2.80197,-3.65437 0.0944,-0.18897 0.13263,-0.46496 0.0981,-0.70833 -0.0479,-0.33726 -0.16076,-0.49236 -0.73282,-1.00661 l -0.67622,-0.6079 0.27577,-0.78782 c 0.15168,-0.43332 0.31192,-0.91233 0.35619,-1.06449 0.0731,-0.25098 0.16229,-0.29278 0.96116,-0.45244 1.10393,-0.22039 1.23122,-0.29225 1.50516,-0.84956 0.19584,-0.39918 0.21767,-0.67593 0.19005,-2.4466 -0.0171,-1.09815 -0.0794,-2.1315 -0.13826,-2.29634 -0.17882,-0.50024 -0.55902,-0.60009 -1.58973,-0.41744 l -0.92206,0.16338 -0.22932,-0.59656 c -0.12612,-0.32812 -0.30542,-0.73959 -0.39841,-0.91438 -0.0931,-0.17477 -0.12959,-0.35849 -0.0813,-0.40822 0.0484,-0.0498 0.3375,-0.42974 0.64272,-0.84445 1.03562,-1.40757 0.99268,-1.58677 -0.75605,-3.15305 -0.7167,-0.64192 -1.41731,-1.22282 -1.55693,-1.29086 -0.45568,-0.22137 -0.90065,0.0553 -1.63695,1.01916 l -0.64362,0.84259 -0.67911,-0.19315 c -0.37347,-0.10631 -0.78138,-0.21457 -0.90629,-0.2409 -0.204,-0.0428 -0.22826,-0.15341 -0.2368,-1.0814 -0.0104,-1.12297 -0.14857,-1.45781 -0.66028,-1.59955 -0.41705,-0.1155 -3.85072,0.56208 -4.22318,0.8334 -0.4286,0.3122 -0.5499,0.73913 -0.53092,1.86905 l 0.0161,0.96032 -0.76907,0.47303 c -0.42299,0.26017 -0.81405,0.52302 -0.86902,0.58413 -0.0813,0.0902 -0.21056,0.0158 -0.69044,-0.39812 -0.81843,-0.7056 -1.03683,-0.79698 -1.48798,-0.62247 -0.33868,0.13101 -0.50825,0.31421 -1.63927,1.77095 -1.43802,1.85219 -1.64467,2.24169 -1.48479,2.79846 z m 7.47616,2.63825 c 1.2751,-1.53187 3.16571,-1.90439 4.49676,-0.88602 0.55423,0.42395 0.89709,1.02187 1.05574,1.84069 0.2047,1.05664 0.11566,1.60379 -0.44177,2.71529 -0.55744,1.11152 -0.94273,1.51007 -1.91197,1.97796 -2.78988,1.34672 -5.16904,-1.48585 -3.82938,-4.55912 0.17861,-0.4099 0.43837,-0.85645 0.63067,-1.08878 z"
       id="path6" />
  </g>
</svg>
