<?xml version="1.0" encoding="UTF-8" standalone="no"?>
<!-- Created with Inkscape (http://www.inkscape.org/) -->

<svg
   width="301.18802mm"
   height="72.941231mm"
   viewBox="0 0 301.18803 72.941236"
   version="1.1"
   id="svg1"
   inkscape:version="1.4 (86a8ad7, 2024-10-11)"
   sodipodi:docname="book-seven.svg"
   xmlns:inkscape="http://www.inkscape.org/namespaces/inkscape"
   xmlns:sodipodi="http://sodipodi.sourceforge.net/DTD/sodipodi-0.dtd"
   xmlns="http://www.w3.org/2000/svg"
   xmlns:svg="http://www.w3.org/2000/svg">
  <sodipodi:namedview
     id="namedview1"
     pagecolor="#ffffff"
     bordercolor="#000000"
     borderopacity="0.25"
     inkscape:showpageshadow="2"
     inkscape:pageopacity="0.0"
     inkscape:pagecheckerboard="0"
     inkscape:deskcolor="#d1d1d1"
     inkscape:document-units="mm"
     inkscape:zoom="0.75811588"
     inkscape:cx="560.60031"
     inkscape:cy="124.65113"
     inkscape:window-width="1920"
     inkscape:window-height="1111"
     inkscape:window-x="-9"
     inkscape:window-y="-9"
     inkscape:window-maximized="1"
     inkscape:current-layer="layer1">
    <inkscape:page
       x="0"
       y="2.1499047e-06"
       width="301.18802"
       height="72.941231"
       id="page1"
       margin="105.39835 0 0"
       bleed="0" />
  </sodipodi:namedview>
  <defs
     id="defs1" />
  <g
     inkscape:label="Ebene 1"
     inkscape:groupmode="layer"
     id="layer1"
     transform="translate(-0.93744081,-132.62645)">
    <rect
       style="display:inline;fill:#8e7660;fill-opacity:1;stroke-width:2.58301;stroke-linecap:square"
       id="rect2"
       width="226.15276"
       height="74.686241"
       x="0.93744081"
       y="132.97545" />
    <path
       id="rect66-1-8-5-1"
       style="fill:#463a2f;fill-opacity:1;stroke:#463a2f;stroke-width:1.48272;stroke-linecap:square;stroke-opacity:1"
       d="m 217.47347,183.57817 0.009,1.60349 -80.52101,0.36873 -0.009,-1.60351 z" />
    <path
       id="rect66-1-8"
       style="fill:#463a2f;fill-opacity:1;stroke:#463a2f;stroke-width:2.02438;stroke-linecap:square;stroke-opacity:1"
       d="m 216.84748,143.69056 0.009,3.00697 -80.04158,0.69146 -0.009,-3.007 z" />
    <path
       id="rect66-1-8-5"
       style="fill:#463a2f;fill-opacity:1;stroke:#463a2f;stroke-width:1.48272;stroke-linecap:square;stroke-opacity:1"
       d="m 217.38228,151.89335 0.009,1.60349 -80.52099,0.3687 -0.009,-1.60348 z" />
    <path
       id="rect66-1-1"
       style="fill:#463a2f;fill-opacity:1;stroke:#463a2f;stroke-width:2.18765;stroke-linecap:square;stroke-opacity:1"
       d="m 218.4258,189.5918 0.009,3.45595 -81.3296,0.7947 -0.009,-3.45599 z" />
    <path
       id="rect66-1-8-5-1-7"
       style="fill:#463a2f;fill-opacity:1;stroke:#463a2f;stroke-width:1.48272;stroke-linecap:square;stroke-opacity:1"
       d="m 87.841492,185.71128 0.0091,1.60348 -80.521001,0.36871 -0.00903,-1.60349 z" />
    <path
       id="rect66-1-8-6"
       style="fill:#463a2f;fill-opacity:1;stroke:#463a2f;stroke-width:2.02438;stroke-linecap:square;stroke-opacity:1"
       d="m 87.2155,145.82366 0.0091,3.00697 -80.0415694,0.69146 -0.00896,-3.007 z" />
    <path
       id="rect66-1-8-5-14"
       style="fill:#463a2f;fill-opacity:1;stroke:#463a2f;stroke-width:1.48272;stroke-linecap:square;stroke-opacity:1"
       d="m 87.750304,154.02645 0.0091,1.60349 -80.5210011,0.36871 -0.00903,-1.60349 z" />
    <path
       id="rect66-1-1-2"
       style="fill:#463a2f;fill-opacity:1;stroke:#463a2f;stroke-width:2.18453;stroke-linecap:square;stroke-opacity:1"
       d="m 88.492049,191.72312 0.0089,3.45885 -81.0292009,0.79537 -0.00909,-3.4589 z" />
    <path
       id="path1"
       style="fill:none;stroke:#463a2f;stroke-width:5.45797;stroke-linecap:square"
       d="m 130.43295,170.82234 a 16.092547,20.598943 0 0 1 -16.09254,20.59894 16.092547,20.598943 0 0 1 -16.092547,-20.59894 16.092547,20.598943 0 0 1 16.092547,-20.59894 16.092547,20.598943 0 0 1 16.09254,20.59894 z" />
    <path
       id="path1-8"
       style="fill:none;stroke:#463a2f;stroke-width:3.45851;stroke-linecap:square"
       d="m 124.4346,171.10507 a 9.8537346,13.50778 0 0 1 -9.85373,13.50779 9.8537346,13.50778 0 0 1 -9.85374,-13.50779 9.8537346,13.50778 0 0 1 9.85374,-13.50777 9.8537346,13.50778 0 0 1 9.85373,13.50777 z" />
    <rect
       style="fill:#463a2f;fill-opacity:1;stroke:none;stroke-width:2.73073;stroke-linecap:square"
       id="rect1"
       width="10.746075"
       height="11.897105"
       x="-30.296907"
       y="191.46352"
       transform="matrix(0.53984033,-0.84176744,0.648246,0.76143097,0,0)" />
  </g>
</svg>
