<?xml version="1.0" encoding="UTF-8" standalone="no"?>
<!-- Created with Inkscape (http://www.inkscape.org/) -->

<svg
   width="263.14688mm"
   height="72.144547mm"
   viewBox="0 0 263.14689 72.144552"
   version="1.1"
   id="svg1"
   inkscape:version="1.4 (86a8ad7, 2024-10-11)"
   sodipodi:docname="book-seven.svg"
   xmlns:inkscape="http://www.inkscape.org/namespaces/inkscape"
   xmlns:sodipodi="http://sodipodi.sourceforge.net/DTD/sodipodi-0.dtd"
   xmlns="http://www.w3.org/2000/svg"
   xmlns:svg="http://www.w3.org/2000/svg">
  <sodipodi:namedview
     id="namedview1"
     pagecolor="#ffffff"
     bordercolor="#000000"
     borderopacity="0.25"
     inkscape:showpageshadow="2"
     inkscape:pageopacity="0.0"
     inkscape:pagecheckerboard="0"
     inkscape:deskcolor="#d1d1d1"
     inkscape:document-units="mm"
     inkscape:zoom="0.75811588"
     inkscape:cx="567.19561"
     inkscape:cy="103.54618"
     inkscape:window-width="1920"
     inkscape:window-height="1111"
     inkscape:window-x="-9"
     inkscape:window-y="-9"
     inkscape:window-maximized="1"
     inkscape:current-layer="layer1">
    <inkscape:page
       x="0"
       y="4.669965e-10"
       width="263.14688"
       height="72.144554"
       id="page1"
       margin="105.39835 0 0"
       bleed="0" />
  </sodipodi:namedview>
  <defs
     id="defs1" />
  <g
     inkscape:label="Ebene 1"
     inkscape:groupmode="layer"
     id="layer1"
     transform="translate(0.6980023,-137.85547)">
    <path
       id="rect54-2"
       style="fill:#8e7660;stroke-width:1.57594;stroke-linecap:square"
       d="m 210.62761,141.36777 0.4878,66.47045 L 1.0762478,207.47295 0.58843964,141.00246 Z" />
    <path
       id="rect66-1-8-5-1"
       style="fill:#463a2f;fill-opacity:1;stroke:#463a2f;stroke-width:1.35126;stroke-linecap:square;stroke-opacity:1"
       d="m 202.43625,186.16659 0.008,1.43115 -74.92927,0.32909 -0.008,-1.43116 z" />
    <path
       id="rect66-1-8"
       style="fill:#463a2f;fill-opacity:1;stroke:#463a2f;stroke-width:1.8449;stroke-linecap:square;stroke-opacity:1"
       d="m 201.85373,150.56597 0.008,2.68379 -74.48313,0.61714 -0.008,-2.68382 z" />
    <path
       id="rect66-1-8-5"
       style="fill:#463a2f;fill-opacity:1;stroke:#463a2f;stroke-width:1.35126;stroke-linecap:square;stroke-opacity:1"
       d="m 202.35139,157.88714 0.008,1.43115 -74.92926,0.32909 -0.008,-1.43116 z" />
    <path
       id="rect66-1-1"
       style="fill:#463a2f;fill-opacity:1;stroke:#463a2f;stroke-width:1.99369;stroke-linecap:square;stroke-opacity:1"
       d="m 203.32244,191.53389 0.008,3.08452 -75.68171,0.70929 -0.008,-3.08456 z" />
    <path
       id="rect66-1-8-5-1-7"
       style="fill:#463a2f;fill-opacity:1;stroke:#463a2f;stroke-width:1.35126;stroke-linecap:square;stroke-opacity:1"
       d="m 81.806487,188.07043 0.0085,1.43115 -74.9292647,0.32909 -0.00841,-1.43116 z" />
    <path
       id="rect66-1-8-6"
       style="fill:#463a2f;fill-opacity:1;stroke:#463a2f;stroke-width:1.8449;stroke-linecap:square;stroke-opacity:1"
       d="m 81.223968,152.46981 0.0084,2.68379 -74.4831256,0.61714 -0.00833,-2.68382 z" />
    <path
       id="rect66-1-8-5-14"
       style="fill:#463a2f;fill-opacity:1;stroke:#463a2f;stroke-width:1.35126;stroke-linecap:square;stroke-opacity:1"
       d="m 81.721632,159.79098 0.0085,1.43115 -74.9292643,0.32909 -0.00841,-1.43116 z" />
    <path
       id="rect66-1-1-2"
       style="fill:#463a2f;fill-opacity:1;stroke:#463a2f;stroke-width:1.99084;stroke-linecap:square;stroke-opacity:1"
       d="m 82.411867,193.43614 0.0083,3.08711 -75.4021722,0.70988 -0.00846,-3.08715 z" />
    <path
       id="path1"
       style="fill:none;stroke:#463a2f;stroke-width:4.97408;stroke-linecap:square"
       d="M 121.44021,174.78171 A 14.975009,18.385037 0 0 1 106.4652,193.16674 14.975009,18.385037 0 0 1 91.490194,174.78171 14.975009,18.385037 0 0 1 106.4652,156.39667 14.975009,18.385037 0 0 1 121.44021,174.78171 Z" />
    <path
       id="path1-8"
       style="fill:none;stroke:#463a2f;stroke-width:3.25618;stroke-linecap:square"
       d="m 116.50396,174.50489 a 9.8227245,12.01136 0 0 1 -9.82272,12.01136 9.8227245,12.01136 0 0 1 -9.82273,-12.01136 9.8227245,12.01136 0 0 1 9.82273,-12.01136 9.8227245,12.01136 0 0 1 9.82272,12.01136 z" />
    <rect
       style="fill:#463a2f;fill-opacity:1;stroke:none;stroke-width:2.69862;stroke-linecap:square"
       id="rect1"
       width="10.443549"
       height="11.955541"
       x="-61.883682"
       y="187.54164"
       transform="matrix(0.63433233,-0.77306047,0.73665086,0.67627325,0,0)" />
  </g>
</svg>
