<?xml version="1.0" encoding="UTF-8" standalone="no"?>
<!-- Created with Inkscape (http://www.inkscape.org/) -->

<svg
   width="210mm"
   height="174.15158mm"
   viewBox="0 0 210 174.15158"
   version="1.1"
   id="svg1"
   xml:space="preserve"
   inkscape:version="1.4 (86a8ad7, 2024-10-11)"
   sodipodi:docname="edu-cap.svg"
   xmlns:inkscape="http://www.inkscape.org/namespaces/inkscape"
   xmlns:sodipodi="http://sodipodi.sourceforge.net/DTD/sodipodi-0.dtd"
   xmlns="http://www.w3.org/2000/svg"
   xmlns:svg="http://www.w3.org/2000/svg"><sodipodi:namedview
     id="namedview1"
     pagecolor="#ffffff"
     bordercolor="#000000"
     borderopacity="0.25"
     inkscape:showpageshadow="2"
     inkscape:pageopacity="0.0"
     inkscape:pagecheckerboard="0"
     inkscape:deskcolor="#d1d1d1"
     inkscape:document-units="mm"
     inkscape:zoom="0.75811588"
     inkscape:cx="397.03693"
     inkscape:cy="246.00461"
     inkscape:window-width="1920"
     inkscape:window-height="1111"
     inkscape:window-x="-9"
     inkscape:window-y="-9"
     inkscape:window-maximized="1"
     inkscape:current-layer="layer1" /><defs
     id="defs1" /><g
     inkscape:label="Ebene 1"
     inkscape:groupmode="layer"
     id="layer1"><path
       style="fill:#000000;stroke-width:6.60127"
       d="m 91.014295,171.88228 c -18.235485,-2.55352 -40.011074,-13.36263 -46.587577,-23.1254 -3.209119,-4.76383 -3.508643,-7.77038 -3.508643,-35.21893 0,-27.740301 0.224724,-29.939753 2.972901,-29.07577 1.635088,0.513768 14.439841,6.256013 28.454953,12.759946 17.398938,8.074174 27.637537,11.829524 32.277311,11.838814 4.68017,0.007 14.72659,-3.66685 32.27726,-11.810982 14.0151,-6.503529 26.81986,-12.251616 28.45495,-12.773526 2.74889,-0.877417 2.97289,1.320875 2.97289,29.169238 0,29.04795 -0.14509,30.31949 -4.08848,35.78421 -11.19702,15.51755 -46.17018,26.24095 -73.225565,22.4524 z m 97.955245,-20.30909 c -5.96994,-6.71723 -7.22994,-14.24832 -4.18641,-25.02226 1.46725,-5.19399 2.98337,-19.00525 3.39551,-30.932422 0.59263,-17.153754 1.30924,-22.00636 3.51287,-23.793231 1.52255,-1.234541 3.38665,-2.244644 4.14237,-2.244644 0.75578,0 1.37414,9.118803 1.37414,20.264079 0,15.660748 0.77178,22.585208 3.39759,30.482238 1.86873,5.62008 3.39761,12.87913 3.39761,16.1313 0,5.6382 -7.05138,19.31669 -9.95795,19.31669 -0.73779,0 -3.02184,-1.89078 -5.07573,-4.20175 z M 76.592952,87.675257 C 8.7729663,56.584151 0.99618167,52.504724 0.99618167,48.019961 0.99618167,44.191984 3.899932,42.526941 29.875862,31.46 45.759648,24.692724 69.022524,15.06964 81.571086,10.075256 L 104.38664,0.99451805 123.19178,8.2712899 c 10.3428,4.0021971 33.71215,13.6554171 51.93177,21.4515941 27.512,11.772305 33.21908,14.832615 33.67174,18.05574 0.62282,4.435007 1.48298,3.977285 -61.55154,32.760561 -21.40711,9.775108 -40.90091,17.745238 -43.31953,17.711367 -2.41854,-0.03397 -14.71766,-4.792736 -27.331268,-10.575295 z"
       id="path1"
       sodipodi:nodetypes="ssscccssscscscssssssccscccccsscc" /></g></svg>
