<?xml version="1.0" encoding="UTF-8" standalone="no"?>
<!-- Created with Inkscape (http://www.inkscape.org/) -->

<svg
   width="210mm"
   height="174.15158mm"
   viewBox="0 0 210 174.15158"
   version="1.1"
   id="svg1"
   xml:space="preserve"
   inkscape:version="1.4 (86a8ad7, 2024-10-11)"
   sodipodi:docname="heart.svg"
   xmlns:inkscape="http://www.inkscape.org/namespaces/inkscape"
   xmlns:sodipodi="http://sodipodi.sourceforge.net/DTD/sodipodi-0.dtd"
   xmlns="http://www.w3.org/2000/svg"
   xmlns:svg="http://www.w3.org/2000/svg"><sodipodi:namedview
     id="namedview1"
     pagecolor="#ffffff"
     bordercolor="#000000"
     borderopacity="0.25"
     inkscape:showpageshadow="2"
     inkscape:pageopacity="0.0"
     inkscape:pagecheckerboard="0"
     inkscape:deskcolor="#d1d1d1"
     inkscape:document-units="mm"
     inkscape:zoom="0.75811588"
     inkscape:cx="469.5852"
     inkscape:cy="242.04743"
     inkscape:window-width="1920"
     inkscape:window-height="1111"
     inkscape:window-x="-9"
     inkscape:window-y="-9"
     inkscape:window-maximized="1"
     inkscape:current-layer="layer1" /><defs
     id="defs1" /><g
     inkscape:label="Ebene 1"
     inkscape:groupmode="layer"
     id="layer1"><path
       style="fill:#000000;stroke-width:1.08634"
       d="M 103.43172,171.57087 C 98.149939,169.40367 83.281936,159.38253 70.036963,149.0626 59.378332,140.75785 38.591917,121.09104 31.087963,112.2115 16.789139,95.291493 8.7226289,80.730625 5.3747522,65.796575 3.6605354,58.149875 3.8286776,44.417128 5.7193983,37.648168 10.308512,21.218704 21.343825,10.170065 38.549668,4.7782579 60.806539,-2.1963933 82.133931,2.9096594 99.824298,19.448195 l 5.933322,5.547001 4.20701,-4.198823 c 17.30889,-17.2751837 40.15413,-23.1034031 62.80361,-16.0223077 25.55789,7.9903737 38.25201,29.9036037 33.72035,58.2097557 -4.10147,25.61917 -27.45928,56.397649 -65.5257,86.342949 -13.2701,10.43905 -32.51566,23.13479 -34.94311,23.05097 -0.37339,-0.0129 -1.53801,-0.37596 -2.58806,-0.80683 z"
       id="path1"
       sodipodi:nodetypes="ssssssscsssssss" /></g></svg>
