<?xml version="1.0" encoding="UTF-8" standalone="no"?>
<!-- Created with Inkscape (http://www.inkscape.org/) -->

<svg
   width="210mm"
   height="297mm"
   viewBox="0 0 210 297"
   version="1.1"
   id="svg1"
   inkscape:version="1.4 (86a8ad7, 2024-10-11)"
   sodipodi:docname="prog-frame.svg"
   xmlns:inkscape="http://www.inkscape.org/namespaces/inkscape"
   xmlns:sodipodi="http://sodipodi.sourceforge.net/DTD/sodipodi-0.dtd"
   xmlns="http://www.w3.org/2000/svg"
   xmlns:svg="http://www.w3.org/2000/svg">
  <sodipodi:namedview
     id="namedview1"
     pagecolor="#ffffff"
     bordercolor="#000000"
     borderopacity="0.25"
     inkscape:showpageshadow="2"
     inkscape:pageopacity="0.0"
     inkscape:pagecheckerboard="0"
     inkscape:deskcolor="#d1d1d1"
     inkscape:document-units="mm"
     inkscape:zoom="0.75811588"
     inkscape:cx="397.03693"
     inkscape:cy="537.51677"
     inkscape:window-width="1920"
     inkscape:window-height="1111"
     inkscape:window-x="-9"
     inkscape:window-y="-9"
     inkscape:window-maximized="1"
     inkscape:current-layer="layer1" />
  <defs
     id="defs1" />
  <g
     inkscape:label="Ebene 1"
     inkscape:groupmode="layer"
     id="layer1">
    <path
       id="rect1"
       style="display:inline;fill:#7ab69b;stroke:#261e1b;stroke-width:7.30851;stroke-linecap:square;fill-opacity:1"
       d="M 27.315242,6.8334777 H 184.99528 V 288.05993 H 27.315242 Z" />
    <path
       style="fill:#000000;stroke-width:1.22715"
       d="m 81.544145,279.96429 v -2.91109 h 5.666136 5.666136 l 1.906767,-5.02953 c 1.048709,-2.76627 1.976611,-5.23213 2.061987,-5.47971 0.127511,-0.3694 -3.934341,-0.45017 -22.638044,-0.45017 H 51.413843 l -0.479152,-0.76117 c -0.427025,-0.67835 -0.478708,-5.06619 -0.474974,-40.32721 0.0021,-21.76134 0.08338,-39.89405 0.179916,-40.29491 0.09675,-0.40085 0.516855,-0.90173 0.933715,-1.11307 1.081616,-0.54832 109.956012,-0.54832 111.037622,0 0.41687,0.21126 0.83704,0.71222 0.9337,1.11307 0.0967,0.40086 0.17779,18.53357 0.17992,40.29491 0.004,35.26102 -0.0479,39.64886 -0.47498,40.32721 l -0.47915,0.76117 h -22.76035 c -12.51822,0 -22.76036,0.0713 -22.76036,0.15823 0,0.087 0.91343,2.55284 2.02984,5.47971 l 2.02986,5.32158 h 5.66536 5.66535 v 2.91109 2.9111 H 107.09206 81.543976 Z M 156.34157,224.65351 V 191.43277 H 107.09224 57.842924 v 33.22074 33.22072 h 49.249316 49.24933 z m -56.32893,21.22797 c 0,-0.19154 1.08354,-4.62248 2.40786,-9.84636 1.32431,-5.22388 3.71366,-14.6983 5.30969,-21.05424 l 2.90184,-11.55629 1.7699,-0.002 c 0.97346,-9.1e-4 1.76793,0.11305 1.76553,0.2544 -0.004,0.25723 -0.8961,3.82645 -6.78106,27.14167 -1.73537,6.87533 -3.29666,13.15557 -3.4695,13.95613 l -0.31426,1.45555 h -1.795 c -1.01171,0 -1.795,-0.15208 -1.795,-0.34838 z m -15.390408,-12.65025 -12.15842,-5.7946 v -2.46961 -2.46962 l 4.924938,-2.30324 c 2.708707,-1.26677 8.214638,-3.84707 12.235372,-5.73397 l 7.310455,-3.43076 v 2.54175 c 0,2.10919 -0.09166,2.57896 -0.538665,2.76024 -1.939886,0.78677 -18.432662,8.41031 -18.606489,8.60056 -0.118176,0.12938 1.89024,1.19197 4.463225,2.36133 2.572986,1.16935 6.929004,3.15643 9.680039,4.41574 l 5.00189,2.28963 v 2.51953 c 0,1.38574 -0.03458,2.51683 -0.07702,2.51357 -0.04243,-0.005 -5.548236,-2.6135 -12.235373,-5.80055 z m 32.627678,3.28285 v -2.50668 l 9.54205,-4.38791 c 5.24813,-2.41335 9.54207,-4.48737 9.54207,-4.60892 0,-0.12154 -4.25931,-2.17028 -9.46512,-4.55274 l -9.46509,-4.33172 -0.0895,-2.55751 -0.0895,-2.55752 6.24562,2.93274 c 3.43508,1.61302 8.94661,4.1984 12.24788,5.74531 l 6.00224,2.81253 v 2.46478 2.46476 l -11.5428,5.49029 c -6.34854,3.01966 -11.85447,5.62731 -12.23539,5.79479 -0.68006,0.29899 -0.69255,0.25925 -0.69255,-2.2022 z"
       id="path5" />
  </g>
</svg>
