<?xml version="1.0" encoding="UTF-8" standalone="no"?>
<!-- Created with Inkscape (http://www.inkscape.org/) -->

<svg
   width="209.302mm"
   height="162.98354mm"
   viewBox="0 0 209.302 162.98354"
   version="1.1"
   id="svg1"
   xml:space="preserve"
   inkscape:version="1.4 (86a8ad7, 2024-10-11)"
   sodipodi:docname="prog.svg"
   xmlns:inkscape="http://www.inkscape.org/namespaces/inkscape"
   xmlns:sodipodi="http://sodipodi.sourceforge.net/DTD/sodipodi-0.dtd"
   xmlns="http://www.w3.org/2000/svg"
   xmlns:svg="http://www.w3.org/2000/svg"><sodipodi:namedview
     id="namedview1"
     pagecolor="#ffffff"
     bordercolor="#000000"
     borderopacity="0.25"
     inkscape:showpageshadow="2"
     inkscape:pageopacity="0.0"
     inkscape:pagecheckerboard="0"
     inkscape:deskcolor="#d1d1d1"
     inkscape:document-units="mm"
     inkscape:zoom="0.75811588"
     inkscape:cx="466.94708"
     inkscape:cy="243.36649"
     inkscape:window-width="1920"
     inkscape:window-height="1111"
     inkscape:window-x="-9"
     inkscape:window-y="-9"
     inkscape:window-maximized="1"
     inkscape:current-layer="layer1" /><defs
     id="defs1" /><g
     inkscape:label="Ebene 1"
     inkscape:groupmode="layer"
     id="layer1"
     transform="translate(-0.69800235)"><path
       style="fill:#000000;stroke-width:1.01349"
       d="m 58.648248,156.7623 v -4.92946 h 10.007896 10.007897 l 3.092576,-7.35478 c 1.700917,-4.04514 3.326776,-7.83724 3.613019,-8.4269 0.286243,-0.58966 -18.292608,-1.24117 -41.286337,-1.4478 L 2.2765177,134.22766 1.8599283,69.440552 C 1.4763297,9.7840958 1.6575552,4.5140323 4.14835,2.8929329 6.2427892,1.5297962 28.559298,1.1367548 103.01698,1.1516453 c 52.88999,0.010577 97.65907,0.3753377 99.48686,0.8105785 3.26254,0.7768882 3.3432,1.670765 4.41506,48.9231972 0.6005,26.472518 0.60392,56.212629 0.007,66.089149 l -1.08421,17.95729 h -41.04434 c -22.57437,0 -41.04432,0.29311 -41.04432,0.65138 0,0.35825 1.48048,4.16097 3.28996,8.45048 l 3.28996,7.79912 h 10.2075 10.20749 v 4.92946 4.92945 H 104.6984 58.648248 Z M 193.62282,68.032136 V 15.216566 H 104.6984 15.773975 V 68.032136 120.8477 H 104.6984 193.62282 Z M 93.748299,102.62945 c -1.82979,-1.00339 -0.568324,-7.075502 7.231141,-34.807348 8.69609,-30.919926 9.73509,-33.628904 13.06211,-34.056763 2.77231,-0.356523 3.49242,0.135733 3.09045,2.112623 -2.24473,11.039666 -18.02819,64.905288 -19.414415,66.257308 -1.078644,1.05203 -2.605353,1.2421 -3.969286,0.49418 z M 62.618088,81.937778 C 43.117617,73.30059 41.97492,72.563496 41.97492,68.62195 c 0,-3.974821 1.015681,-4.598057 21.437136,-13.154121 11.790425,-4.939885 22.063662,-8.458242 22.829414,-7.818572 0.765752,0.639671 0.974353,2.639929 0.463557,4.44502 -0.723684,2.557413 -4.449141,4.640381 -16.874654,9.434914 -8.770263,3.384112 -15.945933,6.618328 -15.945933,7.187148 0,0.568818 7.502997,4.078547 16.673329,7.799397 15.461116,6.273329 16.673328,7.055636 16.673328,10.760216 0,2.307724 -0.838335,3.954934 -1.984921,3.900087 -1.091705,-0.05222 -11.274345,-4.20944 -22.628088,-9.238261 z m 59.547612,5.073104 c 0,-3.10785 0.96637,-4.598858 3.57285,-5.512542 1.96507,-0.68884 9.64671,-3.786982 17.07031,-6.884762 l 13.49746,-5.632326 -17.07031,-7.196088 C 123.17269,55.013581 122.1657,54.341685 122.1657,50.395389 c 0,-2.306529 0.53592,-4.154216 1.19095,-4.105972 0.65502,0.04824 10.83766,4.326305 22.62808,9.506802 18.97575,8.337595 21.43714,9.82337 21.43714,12.940125 0,3.115866 -2.46681,4.606984 -21.43714,12.958143 -11.79042,5.190407 -21.97306,9.468468 -22.62808,9.506803 -0.65503,0.03833 -1.19095,-1.847349 -1.19095,-4.190408 z"
       id="path1"
       sodipodi:nodetypes="ccccssscsssssccssscccccccccccccccccsssssssssssssssssssscssssssss" /></g></svg>
