<?xml version="1.0" encoding="UTF-8" standalone="no"?>
<!-- Created with Inkscape (http://www.inkscape.org/) -->

<svg
   width="342.96945mm"
   height="194.39366mm"
   viewBox="0 0 342.96946 194.39366"
   version="1.1"
   id="svg1"
   inkscape:version="1.4 (86a8ad7, 2024-10-11)"
   sodipodi:docname="skills-frame.svg"
   xml:space="preserve"
   xmlns:inkscape="http://www.inkscape.org/namespaces/inkscape"
   xmlns:sodipodi="http://sodipodi.sourceforge.net/DTD/sodipodi-0.dtd"
   xmlns="http://www.w3.org/2000/svg"
   xmlns:svg="http://www.w3.org/2000/svg"><sodipodi:namedview
     id="namedview1"
     pagecolor="#ffffff"
     bordercolor="#000000"
     borderopacity="0.25"
     inkscape:showpageshadow="2"
     inkscape:pageopacity="0.0"
     inkscape:pagecheckerboard="0"
     inkscape:deskcolor="#d1d1d1"
     inkscape:document-units="mm"
     inkscape:zoom="0.75811588"
     inkscape:cx="660.84884"
     inkscape:cy="497.94498"
     inkscape:window-width="1920"
     inkscape:window-height="1111"
     inkscape:window-x="-9"
     inkscape:window-y="-9"
     inkscape:window-maximized="1"
     inkscape:current-layer="layer1" /><defs
     id="defs1" /><g
     inkscape:label="Ebene 1"
     inkscape:groupmode="layer"
     id="layer1"
     transform="translate(36.645123,-54.444183)"><path
       id="rect2"
       style="fill:#bba28b;stroke:#261e1b;stroke-width:8.23557;stroke-linecap:square;fill-opacity:1"
       d="M -25.546756,239.6034 V 63.306354 H 293.84077 V 239.6034 Z" /><path
       style="fill:#000000"
       d="m 224.88797,193.91333 c -2.20606,-0.36785 -3.97421,-1.18826 -5.31745,-2.46724 l -0.4839,-0.46075 -0.88116,-0.39634 -0.88116,-0.39635 -0.42848,-0.42669 c -0.23566,-0.23468 -0.53996,-0.61988 -0.67622,-0.85601 l -0.24774,-0.42932 -0.002,-0.89087 -0.002,-0.89087 0.20642,-0.42087 0.20642,-0.42088 -0.44322,-0.41562 c -0.24378,-0.2286 -0.5537,-0.63772 -0.68872,-0.90916 l -0.24548,-0.49353 0,-0.78966 0,-0.78965 0.22822,-0.45627 c 0.12553,-0.25094 0.40242,-0.63324 0.61531,-0.84955 l 0.38708,-0.39328 -0.22642,-0.18687 c -1.22514,-1.01115 -2.07584,-2.95147 -2.72568,-6.21691 -0.44894,-2.25586 -0.6788,-2.97769 -1.30303,-4.0919 l -0.47256,-0.84348 -0.98554,-0.98259 c -0.54205,-0.54043 -1.13504,-1.16541 -1.31775,-1.38885 -0.18272,-0.22344 -0.75606,-0.83886 -1.27409,-1.36761 -3.80533,-3.88403 -6.14243,-8.46775 -7.09317,-13.9117 l -0.24287,-1.39071 2e-5,-2.66509 2e-5,-2.66508 0.19242,-1.13513 c 3.24983,-19.17156 24.89856,-28.1072 40.34529,-16.65275 12.78646,9.48174 13.75675,28.05798 2.04789,39.20726 -1.97809,1.88355 -2.45418,3.03477 -2.84953,6.89038 -0.38597,3.76405 -1.00349,5.5004 -2.45291,6.89717 l -0.37712,0.36341 0.39052,0.41878 c 0.21478,0.23033 0.49961,0.62202 0.63297,0.87042 l 0.24246,0.45164 -0.001,0.83901 -0.001,0.83901 -0.23751,0.47437 c -0.13063,0.2609 -0.4988,0.70853 -0.81816,0.99473 l -0.58065,0.52037 0.17401,0.28845 0.174,0.28845 -0.002,0.88837 -0.002,0.88836 -0.26215,0.48937 c -0.37438,0.69884 -0.97512,1.20331 -1.92121,1.61332 l -0.82328,0.3568 -0.46248,0.46835 c -2.04898,2.075 -5.82087,3.15258 -9.11336,2.60356 z m 5.99834,-16.17746 c 1.15492,-0.20177 1.81986,-0.41949 2.34247,-0.76699 l 0.44726,-0.2974 0.25225,-0.51137 c 0.32019,-0.6491 0.43416,-1.26797 0.63947,-3.47257 0.44123,-4.73771 1.48661,-7.1065 4.34996,-9.85687 4.51555,-4.33738 6.61791,-9.15639 6.6161,-15.16531 l -6.2e-4,-2.02349 -0.19203,-1.13161 c -1.58946,-9.36629 -8.75504,-16.10412 -17.97471,-16.90169 l -1.3444,-0.11631 -1.47836,0.11681 c -12.03142,0.95062 -20.34549,12.50003 -17.70647,24.5968 0.85758,3.93096 2.81939,7.39725 5.82416,10.29055 0.6063,0.5838 1.10236,1.10539 1.10236,1.15909 0,0.0537 0.37019,0.4644 0.82265,0.91268 2.64694,2.62246 3.64841,4.67922 4.50618,9.25448 0.15776,0.84147 0.3852,1.77425 0.50543,2.07284 l 0.21859,0.54289 0.49565,0.45863 0.49564,0.45862 0.75887,0.21158 c 1.22594,0.34181 1.96815,0.39086 5.31599,0.35133 l 3.17221,-0.0375 z m 26.15938,-29.15972 -0.53766,-0.1628 -0.55566,-0.50746 -0.55566,-0.50746 -0.17019,-0.52605 c -0.44646,-1.38 0.16144,-2.73007 1.50703,-3.34693 l 0.52161,-0.23912 1.61579,-0.0717 c 0.88869,-0.0394 2.92232,-0.10333 4.51918,-0.14202 l 2.90338,-0.0703 0.4525,0.11331 c 0.61523,0.15406 1.3043,0.65739 1.69586,1.23873 l 0.3249,0.48238 0.0384,0.77484 0.0384,0.77484 -0.28464,0.53402 c -0.32576,0.61118 -0.86156,1.08298 -1.54508,1.36052 l -0.4735,0.19226 -4.15587,0.13597 c -5.02045,0.16426 -4.68024,0.16637 -5.33874,-0.033 z m -72.26203,-0.14855 c -2.29618,-1.01525 -2.2751,-4.0776 0.0343,-4.98955 l 0.5133,-0.20269 1.07035,-0.0573 c 0.58868,-0.0315 2.57299,-0.101 4.40957,-0.15441 l 3.33922,-0.0971 0.55409,0.15104 c 0.79864,0.2177 1.41682,0.69092 1.7991,1.37721 l 0.32371,0.58116 -0.01,0.64844 c -0.016,1.07912 -0.55967,1.92106 -1.56467,2.42316 l -0.56854,0.28404 -1.56314,0.0728 c -0.85972,0.04 -2.96644,0.10163 -4.68159,0.13688 l -3.11845,0.0641 z m 68.41607,-14.48751 c -0.96437,-0.21731 -1.72732,-0.79552 -2.13389,-1.61719 l -0.19856,-0.40128 -0.002,-0.65051 -0.002,-0.6505 0.33,-0.60619 c 0.1815,-0.3334 0.45707,-0.69794 0.61238,-0.81007 0.51998,-0.37545 7.01522,-4.0553 7.52919,-4.26563 l 0.50742,-0.20766 0.64519,0.001 0.6452,0.001 0.5686,0.22732 c 1.06863,0.42723 1.74448,1.42092 1.7423,2.56168 l -0.001,0.54998 -0.25492,0.49353 c -0.38775,0.75068 -0.8174,1.05312 -4.42065,3.11178 -4.15154,2.37193 -4.48336,2.50681 -5.56649,2.26273 z m -55.78615,-0.388 c -0.32511,-0.076 -6.17845,-2.82294 -7.47076,-3.50603 -0.62881,-0.33238 -1.01585,-0.71943 -1.31599,-1.31605 l -0.26487,-0.52651 0.004,-0.61858 c 0.007,-1.04756 0.53997,-1.86957 1.5446,-2.38041 l 0.57246,-0.29108 h 0.86026 0.86026 l 3.11845,1.52153 c 1.71515,0.83683 3.44905,1.68078 3.85312,1.87543 1.39196,0.67054 1.91499,1.34189 1.98788,2.5516 l 0.0432,0.7171 -0.28616,0.53688 c -0.60646,1.13783 -2.12359,1.75921 -3.50634,1.43612 z m 43.98609,-10.45833 c -1.6466,-0.46143 -2.58124,-1.94501 -2.1414,-3.39909 0.14374,-0.47518 3.87325,-6.89367 4.28028,-7.36636 0.40086,-0.46554 1.2821,-0.89054 1.9845,-0.95708 l 0.57042,-0.054 0.62438,0.16661 0.62437,0.16661 0.56842,0.52177 0.56842,0.52177 0.17019,0.52604 c 0.38251,1.18233 0.37969,1.18976 -2.04738,5.39376 l -1.92245,3.32991 -0.44014,0.4109 c -0.70745,0.66045 -1.9585,0.98611 -2.83961,0.7392 z m -32.66406,-0.35852 c -0.77842,-0.35606 -0.9154,-0.52342 -3.27157,-3.99717 -2.46828,-3.63902 -2.45464,-3.61593 -2.52946,-4.28139 l -0.0579,-0.51451 0.18151,-0.57313 0.18151,-0.57312 0.55835,-0.51253 0.55835,-0.51252 0.52903,-0.16546 c 1.0903,-0.34101 2.20735,-0.13339 3.012,0.55982 l 0.47572,0.40985 2.0639,3.05654 c 1.13515,1.6811 2.16656,3.23573 2.29203,3.45474 l 0.22812,0.3982 v 0.78965 0.78965 l -0.21283,0.39483 c -0.52711,0.97788 -1.53609,1.52996 -2.79613,1.52996 h -0.65869 z m 16.53345,-3.68838 c -1.01544,-0.28353 -1.88016,-1.12644 -2.0825,-2.02998 -0.0724,-0.32311 -0.27375,-5.16546 -0.29842,-7.17526 l -0.0154,-1.25286 0.29102,-0.546 c 0.52554,-0.98602 1.51381,-1.53815 2.75314,-1.53815 h 0.60887 l 0.66387,0.30451 c 0.71401,0.32751 1.06377,0.67393 1.4138,1.40029 l 0.22173,0.4601 0.15681,3.92692 c 0.0863,2.15981 0.1265,4.08238 0.0894,4.27239 -0.3052,1.56498 -2.1708,2.63361 -3.80239,2.17804 z"
       id="path1" /></g></svg>
