<?xml version="1.0" encoding="UTF-8" standalone="no"?>
<!-- Created with Inkscape (http://www.inkscape.org/) -->

<svg
   width="171.95888mm"
   height="160.88953mm"
   viewBox="0 0 171.95888 160.88953"
   version="1.1"
   id="svg1"
   xml:space="preserve"
   inkscape:version="1.4 (86a8ad7, 2024-10-11)"
   sodipodi:docname="skills.svg"
   xmlns:inkscape="http://www.inkscape.org/namespaces/inkscape"
   xmlns:sodipodi="http://sodipodi.sourceforge.net/DTD/sodipodi-0.dtd"
   xmlns="http://www.w3.org/2000/svg"
   xmlns:svg="http://www.w3.org/2000/svg"><sodipodi:namedview
     id="namedview1"
     pagecolor="#ffffff"
     bordercolor="#000000"
     borderopacity="0.25"
     inkscape:showpageshadow="2"
     inkscape:pageopacity="0.0"
     inkscape:pagecheckerboard="0"
     inkscape:deskcolor="#d1d1d1"
     inkscape:document-units="mm"
     inkscape:zoom="0.75811588"
     inkscape:cx="466.94708"
     inkscape:cy="242.70696"
     inkscape:window-width="1920"
     inkscape:window-height="1111"
     inkscape:window-x="-9"
     inkscape:window-y="-9"
     inkscape:window-maximized="1"
     inkscape:current-layer="layer1"
     showguides="false" /><defs
     id="defs1" /><g
     inkscape:label="Ebene 1"
     inkscape:groupmode="layer"
     id="layer1"
     transform="translate(-0.69800235)"><path
       style="fill:#000000;stroke-width:1.21491"
       d="m 81.039094,158.63362 c -9.318025,-3.9053 -13.683523,-9.02591 -14.024555,-16.45045 -0.183861,-4.00278 -0.804942,-7.98327 -1.380182,-8.84555 -0.575238,-0.86228 -1.994591,-4.81214 -3.154118,-8.77748 -1.248901,-4.27097 -5.28322,-10.53926 -9.897565,-15.37825 C 41.99008,98.073602 38.873736,91.517011 38.011784,78.525668 37.095949,64.72222 40.730633,55.240726 50.792752,45.185028 60.906047,35.078187 72.638968,30.357222 87.69359,30.337266 c 19.93071,-0.02641 36.24577,9.251138 44.98771,25.582278 9.07776,16.958482 5.94331,36.381207 -8.2673,51.228746 -5.81371,6.07427 -11.08922,20.93149 -10.88522,30.65562 0.0509,2.42599 -0.6696,4.84299 -1.6011,5.37112 -0.93151,0.52811 -1.69364,2.29127 -1.69364,3.91813 0,7.13852 -20.429602,15.21412 -29.194946,11.54046 z m 20.486296,-30.39931 c 0.87994,-0.80724 2.31794,-4.99348 3.19551,-9.30272 0.87759,-4.30927 3.29534,-9.75739 5.37277,-12.10696 8.53847,-9.656861 14.09778,-18.684331 15.20348,-24.68814 C 131.4123,48.932334 88.094895,26.634438 61.8561,49.479822 54.089291,56.242163 49.791311,65.303928 49.695163,75.119663 c -0.111141,11.346717 2.740442,17.447156 13.05428,27.927217 5.271186,5.35615 9.191169,11.18374 10.372499,15.42017 2.903312,10.41171 3.000456,10.56223 7.366607,11.41413 5.817295,1.13505 19.141345,0.092 21.036841,-1.64687 z M 2.9324267,74.93805 c -2.04016305,-4.877238 2.8101085,-7.283616 14.6807923,-7.283616 12.020839,0 15.67614,2.388454 11.210153,7.324958 -3.10986,3.437502 -24.4499884,3.403427 -25.8909453,-0.04135 z M 146.29293,75.03339 c -2.47725,-5.922159 0.52799,-7.549245 13.01739,-7.047836 11.44628,0.459532 11.96769,0.657263 11.96769,4.538402 0,3.88114 -0.52141,4.078871 -11.96769,4.538403 -9.49827,0.381325 -12.18427,-0.03733 -13.01739,-2.028969 z M 24.228699,48.079133 c -8.592358,-3.629692 -12.094586,-7.050868 -10.67993,-10.432766 1.387712,-3.317478 6.313211,-3.088194 16.068892,0.748014 9.394399,3.694141 11.962336,7.590776 7.135977,10.828264 -3.934093,2.63896 -3.470776,2.68126 -12.524939,-1.143512 z m 113.186051,0.908789 c -1.77344,-4.239605 0.70408,-7.051823 10.03313,-11.388559 7.1465,-3.322144 9.60307,-3.810313 11.58418,-2.302005 4.33221,3.298308 2.79458,6.294716 -5.79437,11.29155 -9.16796,5.333689 -14.27167,6.107495 -15.82294,2.399014 z M 47.534096,24.445774 c -6.669118,-8.012511 -7.035845,-9.879793 -2.460348,-12.527443 4.033264,-2.333882 7.157847,-0.644113 12.924525,6.989567 3.998881,5.293545 4.731215,7.414124 3.287024,9.518052 -3.410726,4.968818 -7.220421,3.86613 -13.751201,-3.980176 z m 66.745344,4.745523 c -0.67581,-1.615605 0.70148,-5.807548 3.33315,-10.144844 3.3134,-5.460833 5.71116,-7.525947 9.17956,-7.906056 6.17192,-0.676392 7.50675,2.819212 3.70454,9.701252 -5.93169,10.73635 -13.57316,14.670657 -16.21725,8.349648 z M 84.974527,23.61042 C 80.667139,21.399081 80.537371,3.1136036 84.818376,1.6065808 c 5.560303,-1.95737065 8.578499,1.7881088 9.133878,11.3348292 0.431852,7.423433 -0.05733,9.353476 -2.699765,10.650785 -2.078732,1.020567 -4.3129,1.027053 -6.277962,0.01822 z"
       id="path1" /></g></svg>
