<?xml version="1.0" encoding="UTF-8" standalone="no"?>
<!-- Created with Inkscape (http://www.inkscape.org/) -->

<svg
   width="489.20093mm"
   height="262.09985mm"
   viewBox="0 0 489.20093 262.09986"
   version="1.1"
   id="svg1"
   xml:space="preserve"
   inkscape:version="1.4 (86a8ad7, 2024-10-11)"
   sodipodi:docname="wiggly-frame-line.svg"
   xmlns:inkscape="http://www.inkscape.org/namespaces/inkscape"
   xmlns:sodipodi="http://sodipodi.sourceforge.net/DTD/sodipodi-0.dtd"
   xmlns="http://www.w3.org/2000/svg"
   xmlns:svg="http://www.w3.org/2000/svg"><sodipodi:namedview
     id="namedview1"
     pagecolor="#ffffff"
     bordercolor="#000000"
     borderopacity="0.25"
     inkscape:showpageshadow="2"
     inkscape:pageopacity="0.0"
     inkscape:pagecheckerboard="0"
     inkscape:deskcolor="#d1d1d1"
     inkscape:document-units="mm"
     inkscape:zoom="0.75811588"
     inkscape:cx="1583.531"
     inkscape:cy="359.44373"
     inkscape:window-width="3200"
     inkscape:window-height="1711"
     inkscape:window-x="2391"
     inkscape:window-y="-9"
     inkscape:window-maximized="1"
     inkscape:current-layer="layer1"
     showguides="false" /><defs
     id="defs1" /><g
     inkscape:label="Ebene 1"
     inkscape:groupmode="layer"
     id="layer1"
     transform="translate(294.90599,30.712103)"><path
       style="fill:#261e1b;stroke:#261e1b;stroke-width:0;stroke-linecap:round;stroke-linejoin:bevel"
       d="m -355.63219,190.55465 c 0,0 56.86093,-25.37754 87.59722,-29.6651 24.07367,-3.35815 55.39194,9.65169 77.82243,-5.23502 24.29696,-16.12546 24.22292,-48.83782 48.87398,-53.04818 44.784916,-7.649201 87.745058,53.43389 132.7116513,46.76616 46.8848547,-6.95216 58.6749157,-30.84411 90.9808237,-38.39013 42.142115,-9.84356 130.079995,-8.02703 130.079995,-8.02703 l 1.50381,4.88602 c 0,0 -85.71745,0.93067 -128.576186,9.77203 -16.196544,3.3412 -52.57188,39.64247 -98.123917,40.48414 -40.91256,0.75595 -82.670955,-56.21341 -126.320447,-49.20917 -25.09454,4.02681 -25.70369,43.7388 -50.75377,54.09519 -23.14753,9.56982 -52.88331,-0.29697 -77.07051,3.14101 -31.70817,4.50702 -87.59722,30.7121 -87.59722,30.7121 z"
       id="path2"
       sodipodi:nodetypes="csssssccssssscc" /></g></svg>
